<svg xmlns="http://www.w3.org/2000/svg" preserveAspectRatio="xMidYMid meet"><rect width="100%" height="100%" fill="#282a36" /><g transform="translate(10, 10)"><line x1="14.8" y1="10" x2="1142.8" y2="10" 
               stroke="#000000" stroke-width="2" /><line x1="14.8" y1="202" x2="14.8" y2="430" 
              stroke="#000000" stroke-width="2" stroke-linecap="round" /><line x1="14.8" y1="430" x2="554.8" y2="430" 
            stroke="#000000" stroke-width="2" stroke-linecap="round" /><line x1="14.8" y1="430" x2="14.8" y2="190" 
            stroke="#000000" stroke-width="2" stroke-linecap="round" /><line x1="554.8" y1="430" x2="554.8" y2="418" 
            stroke="#000000" stroke-width="2" stroke-linecap="round" /><line x1="14.8" y1="106" x2="14.8" y2="190" 
              stroke="#000000" stroke-width="2" stroke-linecap="round" /><line x1="14.8" y1="190" x2="104.8" y2="190" 
            stroke="#000000" stroke-width="2" stroke-linecap="round" /><line x1="14.8" y1="190" x2="14.8" y2="94" 
            stroke="#000000" stroke-width="2" stroke-linecap="round" /><line x1="104.8" y1="190" x2="104.8" y2="178" 
            stroke="#000000" stroke-width="2" stroke-linecap="round" /><line x1="14.8" y1="22" x2="98.8" y2="22" 
               stroke="#000000" stroke-width="2" /><line x1="14.8" y1="34" x2="98.8" y2="34" 
               stroke="#000000" stroke-width="2" /><line x1="14.8" y1="46" x2="98.8" y2="46" 
               stroke="#000000" stroke-width="2" /><line x1="14.8" y1="58" x2="98.8" y2="58" 
               stroke="#000000" stroke-width="2" /><line x1="14.8" y1="82" x2="14.8" y2="94" 
              stroke="#000000" stroke-width="2" stroke-linecap="round" /><line x1="14.8" y1="94" x2="50.8" y2="94" 
            stroke="#000000" stroke-width="2" stroke-linecap="round" /><line x1="14.8" y1="94" x2="14.8" y2="70" 
            stroke="#000000" stroke-width="2" stroke-linecap="round" /><line x1="50.8" y1="94" x2="50.8" y2="82" 
            stroke="#000000" stroke-width="2" stroke-linecap="round" /><line x1="14.8" y1="70" x2="32.8" y2="70" 
            stroke="#000000" stroke-width="2" stroke-linecap="round" /><line x1="14.8" y1="70" x2="14.8" y2="60" 
            stroke="#000000" stroke-width="2" stroke-linecap="round" /><line x1="32.8" y1="70" x2="32.8" y2="60" 
            stroke="#000000" stroke-width="2" stroke-linecap="round" /><line x1="14.8" y1="70" x2="14.8" y2="22" 
                 stroke="#000000" stroke-width="2" stroke-linecap="round" /><line x1="32.8" y1="70" x2="32.8" y2="46" 
                 stroke="#000000" stroke-width="2" stroke-linecap="round" /><line x1="86.8" y1="70" x2="86.8" y2="82" 
              stroke="#000000" stroke-width="2" stroke-linecap="round" /><line x1="50.8" y1="82" x2="86.8" y2="82" 
            stroke="#000000" stroke-width="2" stroke-linecap="round" /><line x1="50.8" y1="82" x2="50.8" y2="70" 
            stroke="#000000" stroke-width="2" stroke-linecap="round" /><line x1="86.8" y1="82" x2="86.8" y2="60" 
            stroke="#000000" stroke-width="2" stroke-linecap="round" /><line x1="50.8" y1="70" x2="68.8" y2="70" 
            stroke="#000000" stroke-width="2" stroke-linecap="round" /><line x1="50.8" y1="70" x2="50.8" y2="60" 
            stroke="#000000" stroke-width="2" stroke-linecap="round" /><line x1="68.8" y1="70" x2="68.8" y2="60" 
            stroke="#000000" stroke-width="2" stroke-linecap="round" /><line x1="50.8" y1="70" x2="50.8" y2="34" 
                 stroke="#000000" stroke-width="2" stroke-linecap="round" /><line x1="68.8" y1="70" x2="68.8" y2="46" 
                 stroke="#000000" stroke-width="2" stroke-linecap="round" /><line x1="86.8" y1="70" x2="86.8" y2="58" 
                 stroke="#000000" stroke-width="2" stroke-linecap="round" /><line x1="446.8" y1="106" x2="446.8" y2="178" 
              stroke="#000000" stroke-width="2" stroke-linecap="round" /><line x1="104.8" y1="178" x2="446.8" y2="178" 
            stroke="#000000" stroke-width="2" stroke-linecap="round" /><line x1="104.8" y1="178" x2="104.8" y2="166" 
            stroke="#000000" stroke-width="2" stroke-linecap="round" /><line x1="446.8" y1="178" x2="446.8" y2="94" 
            stroke="#000000" stroke-width="2" stroke-linecap="round" /><line x1="104.8" y1="130" x2="104.8" y2="166" 
              stroke="#000000" stroke-width="2" stroke-linecap="round" /><line x1="104.8" y1="166" x2="194.8" y2="166" 
            stroke="#000000" stroke-width="2" stroke-linecap="round" /><line x1="104.8" y1="166" x2="104.8" y2="118" 
            stroke="#000000" stroke-width="2" stroke-linecap="round" /><line x1="194.8" y1="166" x2="194.8" y2="154" 
            stroke="#000000" stroke-width="2" stroke-linecap="round" /><line x1="104.8" y1="22" x2="188.8" y2="22" 
               stroke="#000000" stroke-width="2" /><line x1="104.8" y1="34" x2="188.8" y2="34" 
               stroke="#000000" stroke-width="2" /><line x1="104.8" y1="46" x2="188.8" y2="46" 
               stroke="#000000" stroke-width="2" /><line x1="104.8" y1="58" x2="188.8" y2="58" 
               stroke="#000000" stroke-width="2" /><line x1="176.8" y1="70" x2="176.8" y2="118" 
              stroke="#000000" stroke-width="2" stroke-linecap="round" /><line x1="104.8" y1="118" x2="176.8" y2="118" 
            stroke="#000000" stroke-width="2" stroke-linecap="round" /><line x1="104.8" y1="118" x2="104.8" y2="106" 
            stroke="#000000" stroke-width="2" stroke-linecap="round" /><line x1="176.8" y1="118" x2="176.8" y2="60" 
            stroke="#000000" stroke-width="2" stroke-linecap="round" /><line x1="104.8" y1="70" x2="104.8" y2="106" 
              stroke="#000000" stroke-width="2" stroke-linecap="round" /><line x1="104.8" y1="106" x2="122.8" y2="106" 
            stroke="#000000" stroke-width="2" stroke-linecap="round" /><line x1="104.8" y1="106" x2="104.8" y2="60" 
            stroke="#000000" stroke-width="2" stroke-linecap="round" /><line x1="122.8" y1="106" x2="122.8" y2="94" 
            stroke="#000000" stroke-width="2" stroke-linecap="round" /><line x1="104.8" y1="70" x2="104.8" y2="22" 
                 stroke="#000000" stroke-width="2" stroke-linecap="round" /><line x1="122.8" y1="70" x2="170.8" y2="70" 
               stroke="#000000" stroke-width="2" /><line x1="122.8" y1="82" x2="122.8" y2="94" 
              stroke="#000000" stroke-width="2" stroke-linecap="round" /><line x1="122.8" y1="94" x2="140.8" y2="94" 
            stroke="#000000" stroke-width="2" stroke-linecap="round" /><line x1="122.8" y1="94" x2="122.8" y2="72" 
            stroke="#000000" stroke-width="2" stroke-linecap="round" /><line x1="140.8" y1="94" x2="140.8" y2="82" 
            stroke="#000000" stroke-width="2" stroke-linecap="round" /><line x1="122.8" y1="82" x2="122.8" y2="70" 
                 stroke="#000000" stroke-width="2" stroke-linecap="round" /><line x1="140.8" y1="82" x2="158.8" y2="82" 
            stroke="#000000" stroke-width="2" stroke-linecap="round" /><line x1="140.8" y1="82" x2="140.8" y2="72" 
            stroke="#000000" stroke-width="2" stroke-linecap="round" /><line x1="158.8" y1="82" x2="158.8" y2="72" 
            stroke="#000000" stroke-width="2" stroke-linecap="round" /><line x1="140.8" y1="82" x2="140.8" y2="34" 
                 stroke="#000000" stroke-width="2" stroke-linecap="round" /><line x1="158.8" y1="82" x2="158.8" y2="46" 
                 stroke="#000000" stroke-width="2" stroke-linecap="round" /><line x1="176.8" y1="70" x2="176.8" y2="58" 
                 stroke="#000000" stroke-width="2" stroke-linecap="round" /><line x1="194.8" y1="94" x2="194.8" y2="154" 
              stroke="#000000" stroke-width="2" stroke-linecap="round" /><line x1="194.8" y1="154" x2="266.8" y2="154" 
            stroke="#000000" stroke-width="2" stroke-linecap="round" /><line x1="194.8" y1="154" x2="194.8" y2="82" 
            stroke="#000000" stroke-width="2" stroke-linecap="round" /><line x1="266.8" y1="154" x2="266.8" y2="142" 
            stroke="#000000" stroke-width="2" stroke-linecap="round" /><line x1="248.8" y1="22" x2="248.8" y2="82" 
              stroke="#000000" stroke-width="2" stroke-linecap="round" /><line x1="194.8" y1="82" x2="248.8" y2="82" 
            stroke="#000000" stroke-width="2" stroke-linecap="round" /><line x1="194.8" y1="82" x2="194.8" y2="70" 
            stroke="#000000" stroke-width="2" stroke-linecap="round" /><line x1="248.8" y1="82" x2="248.8" y2="12" 
            stroke="#000000" stroke-width="2" stroke-linecap="round" /><line x1="194.8" y1="22" x2="242.8" y2="22" 
               stroke="#000000" stroke-width="2" /><line x1="194.8" y1="34" x2="242.8" y2="34" 
               stroke="#000000" stroke-width="2" /><line x1="194.8" y1="46" x2="242.8" y2="46" 
               stroke="#000000" stroke-width="2" /><line x1="194.8" y1="58" x2="194.8" y2="70" 
              stroke="#000000" stroke-width="2" stroke-linecap="round" /><line x1="194.8" y1="70" x2="212.8" y2="70" 
            stroke="#000000" stroke-width="2" stroke-linecap="round" /><line x1="194.8" y1="70" x2="194.8" y2="48" 
            stroke="#000000" stroke-width="2" stroke-linecap="round" /><line x1="212.8" y1="70" x2="212.8" y2="58" 
            stroke="#000000" stroke-width="2" stroke-linecap="round" /><line x1="194.8" y1="58" x2="194.8" y2="22" 
                 stroke="#000000" stroke-width="2" stroke-linecap="round" /><line x1="212.8" y1="58" x2="230.8" y2="58" 
            stroke="#000000" stroke-width="2" stroke-linecap="round" /><line x1="212.8" y1="58" x2="212.8" y2="48" 
            stroke="#000000" stroke-width="2" stroke-linecap="round" /><line x1="230.8" y1="58" x2="230.8" y2="48" 
            stroke="#000000" stroke-width="2" stroke-linecap="round" /><line x1="212.8" y1="58" x2="212.8" y2="34" 
                 stroke="#000000" stroke-width="2" stroke-linecap="round" /><line x1="230.8" y1="58" x2="230.8" y2="46" 
                 stroke="#000000" stroke-width="2" stroke-linecap="round" /><line x1="248.8" y1="22" x2="248.8" y2="10" 
                 stroke="#000000" stroke-width="2" stroke-linecap="round" /><line x1="266.8" y1="22" x2="440.8" y2="22" 
               stroke="#000000" stroke-width="2" /><line x1="266.8" y1="34" x2="440.8" y2="34" 
               stroke="#000000" stroke-width="2" /><line x1="266.8" y1="46" x2="266.8" y2="142" 
              stroke="#000000" stroke-width="2" stroke-linecap="round" /><line x1="266.8" y1="142" x2="284.8" y2="142" 
            stroke="#000000" stroke-width="2" stroke-linecap="round" /><line x1="266.8" y1="142" x2="266.8" y2="36" 
            stroke="#000000" stroke-width="2" stroke-linecap="round" /><line x1="284.8" y1="142" x2="284.8" y2="130" 
            stroke="#000000" stroke-width="2" stroke-linecap="round" /><line x1="266.8" y1="46" x2="266.8" y2="22" 
                 stroke="#000000" stroke-width="2" stroke-linecap="round" /><line x1="284.8" y1="46" x2="284.8" y2="130" 
              stroke="#000000" stroke-width="2" stroke-linecap="round" /><line x1="284.8" y1="130" x2="302.8" y2="130" 
            stroke="#000000" stroke-width="2" stroke-linecap="round" /><line x1="284.8" y1="130" x2="284.8" y2="36" 
            stroke="#000000" stroke-width="2" stroke-linecap="round" /><line x1="302.8" y1="130" x2="302.8" y2="118" 
            stroke="#000000" stroke-width="2" stroke-linecap="round" /><line x1="284.8" y1="46" x2="284.8" y2="22" 
                 stroke="#000000" stroke-width="2" stroke-linecap="round" /><line x1="302.8" y1="46" x2="302.8" y2="118" 
              stroke="#000000" stroke-width="2" stroke-linecap="round" /><line x1="302.8" y1="118" x2="320.8" y2="118" 
            stroke="#000000" stroke-width="2" stroke-linecap="round" /><line x1="302.8" y1="118" x2="302.8" y2="36" 
            stroke="#000000" stroke-width="2" stroke-linecap="round" /><line x1="320.8" y1="118" x2="320.8" y2="106" 
            stroke="#000000" stroke-width="2" stroke-linecap="round" /><line x1="302.8" y1="46" x2="302.8" y2="22" 
                 stroke="#000000" stroke-width="2" stroke-linecap="round" /><line x1="320.8" y1="46" x2="320.8" y2="106" 
              stroke="#000000" stroke-width="2" stroke-linecap="round" /><line x1="320.8" y1="106" x2="338.8" y2="106" 
            stroke="#000000" stroke-width="2" stroke-linecap="round" /><line x1="320.8" y1="106" x2="320.8" y2="36" 
            stroke="#000000" stroke-width="2" stroke-linecap="round" /><line x1="338.8" y1="106" x2="338.8" y2="94" 
            stroke="#000000" stroke-width="2" stroke-linecap="round" /><line x1="320.8" y1="46" x2="320.8" y2="22" 
                 stroke="#000000" stroke-width="2" stroke-linecap="round" /><line x1="338.8" y1="46" x2="338.8" y2="94" 
              stroke="#000000" stroke-width="2" stroke-linecap="round" /><line x1="338.8" y1="94" x2="356.8" y2="94" 
            stroke="#000000" stroke-width="2" stroke-linecap="round" /><line x1="338.8" y1="94" x2="338.8" y2="36" 
            stroke="#000000" stroke-width="2" stroke-linecap="round" /><line x1="356.8" y1="94" x2="356.8" y2="82" 
            stroke="#000000" stroke-width="2" stroke-linecap="round" /><line x1="338.8" y1="46" x2="338.8" y2="22" 
                 stroke="#000000" stroke-width="2" stroke-linecap="round" /><line x1="356.8" y1="46" x2="356.8" y2="82" 
              stroke="#000000" stroke-width="2" stroke-linecap="round" /><line x1="356.8" y1="82" x2="374.8" y2="82" 
            stroke="#000000" stroke-width="2" stroke-linecap="round" /><line x1="356.8" y1="82" x2="356.8" y2="36" 
            stroke="#000000" stroke-width="2" stroke-linecap="round" /><line x1="374.8" y1="82" x2="374.8" y2="70" 
            stroke="#000000" stroke-width="2" stroke-linecap="round" /><line x1="356.8" y1="46" x2="356.8" y2="22" 
                 stroke="#000000" stroke-width="2" stroke-linecap="round" /><line x1="374.8" y1="46" x2="374.8" y2="70" 
              stroke="#000000" stroke-width="2" stroke-linecap="round" /><line x1="374.8" y1="70" x2="392.8" y2="70" 
            stroke="#000000" stroke-width="2" stroke-linecap="round" /><line x1="374.8" y1="70" x2="374.8" y2="36" 
            stroke="#000000" stroke-width="2" stroke-linecap="round" /><line x1="392.8" y1="70" x2="392.8" y2="58" 
            stroke="#000000" stroke-width="2" stroke-linecap="round" /><line x1="374.8" y1="46" x2="374.8" y2="22" 
                 stroke="#000000" stroke-width="2" stroke-linecap="round" /><line x1="392.8" y1="46" x2="392.8" y2="58" 
              stroke="#000000" stroke-width="2" stroke-linecap="round" /><line x1="392.8" y1="58" x2="410.8" y2="58" 
            stroke="#000000" stroke-width="2" stroke-linecap="round" /><line x1="392.8" y1="58" x2="392.8" y2="36" 
            stroke="#000000" stroke-width="2" stroke-linecap="round" /><line x1="410.8" y1="58" x2="410.8" y2="46" 
            stroke="#000000" stroke-width="2" stroke-linecap="round" /><line x1="392.8" y1="46" x2="392.8" y2="22" 
                 stroke="#000000" stroke-width="2" stroke-linecap="round" /><line x1="410.8" y1="46" x2="428.8" y2="46" 
            stroke="#000000" stroke-width="2" stroke-linecap="round" /><line x1="410.8" y1="46" x2="410.8" y2="36" 
            stroke="#000000" stroke-width="2" stroke-linecap="round" /><line x1="428.8" y1="46" x2="428.8" y2="36" 
            stroke="#000000" stroke-width="2" stroke-linecap="round" /><line x1="410.8" y1="46" x2="410.8" y2="22" 
                 stroke="#000000" stroke-width="2" stroke-linecap="round" /><line x1="428.8" y1="46" x2="428.8" y2="34" 
                 stroke="#000000" stroke-width="2" stroke-linecap="round" /><line x1="446.8" y1="22" x2="548.8" y2="22" 
               stroke="#000000" stroke-width="2" /><line x1="446.8" y1="34" x2="548.8" y2="34" 
               stroke="#000000" stroke-width="2" /><line x1="446.8" y1="46" x2="446.8" y2="94" 
              stroke="#000000" stroke-width="2" stroke-linecap="round" /><line x1="446.8" y1="94" x2="464.8" y2="94" 
            stroke="#000000" stroke-width="2" stroke-linecap="round" /><line x1="446.8" y1="94" x2="446.8" y2="36" 
            stroke="#000000" stroke-width="2" stroke-linecap="round" /><line x1="464.8" y1="94" x2="464.8" y2="82" 
            stroke="#000000" stroke-width="2" stroke-linecap="round" /><line x1="446.8" y1="46" x2="446.8" y2="22" 
                 stroke="#000000" stroke-width="2" stroke-linecap="round" /><line x1="464.8" y1="46" x2="464.8" y2="82" 
              stroke="#000000" stroke-width="2" stroke-linecap="round" /><line x1="464.8" y1="82" x2="482.8" y2="82" 
            stroke="#000000" stroke-width="2" stroke-linecap="round" /><line x1="464.8" y1="82" x2="464.8" y2="36" 
            stroke="#000000" stroke-width="2" stroke-linecap="round" /><line x1="482.8" y1="82" x2="482.8" y2="70" 
            stroke="#000000" stroke-width="2" stroke-linecap="round" /><line x1="464.8" y1="46" x2="464.8" y2="22" 
                 stroke="#000000" stroke-width="2" stroke-linecap="round" /><line x1="482.8" y1="46" x2="482.8" y2="70" 
              stroke="#000000" stroke-width="2" stroke-linecap="round" /><line x1="482.8" y1="70" x2="500.8" y2="70" 
            stroke="#000000" stroke-width="2" stroke-linecap="round" /><line x1="482.8" y1="70" x2="482.8" y2="36" 
            stroke="#000000" stroke-width="2" stroke-linecap="round" /><line x1="500.8" y1="70" x2="500.8" y2="58" 
            stroke="#000000" stroke-width="2" stroke-linecap="round" /><line x1="482.8" y1="46" x2="482.8" y2="22" 
                 stroke="#000000" stroke-width="2" stroke-linecap="round" /><line x1="500.8" y1="46" x2="500.8" y2="58" 
              stroke="#000000" stroke-width="2" stroke-linecap="round" /><line x1="500.8" y1="58" x2="518.8" y2="58" 
            stroke="#000000" stroke-width="2" stroke-linecap="round" /><line x1="500.8" y1="58" x2="500.8" y2="36" 
            stroke="#000000" stroke-width="2" stroke-linecap="round" /><line x1="518.8" y1="58" x2="518.8" y2="46" 
            stroke="#000000" stroke-width="2" stroke-linecap="round" /><line x1="500.8" y1="46" x2="500.8" y2="22" 
                 stroke="#000000" stroke-width="2" stroke-linecap="round" /><line x1="518.8" y1="46" x2="536.8" y2="46" 
            stroke="#000000" stroke-width="2" stroke-linecap="round" /><line x1="518.8" y1="46" x2="518.8" y2="36" 
            stroke="#000000" stroke-width="2" stroke-linecap="round" /><line x1="536.8" y1="46" x2="536.8" y2="36" 
            stroke="#000000" stroke-width="2" stroke-linecap="round" /><line x1="518.8" y1="46" x2="518.8" y2="22" 
                 stroke="#000000" stroke-width="2" stroke-linecap="round" /><line x1="536.8" y1="46" x2="536.8" y2="34" 
                 stroke="#000000" stroke-width="2" stroke-linecap="round" /><line x1="554.8" y1="22" x2="1142.8" y2="22" 
               stroke="#000000" stroke-width="2" /><line x1="554.8" y1="34" x2="1142.8" y2="34" 
               stroke="#000000" stroke-width="2" /><line x1="554.8" y1="46" x2="554.8" y2="418" 
              stroke="#000000" stroke-width="2" stroke-linecap="round" /><line x1="554.8" y1="418" x2="572.8" y2="418" 
            stroke="#000000" stroke-width="2" stroke-linecap="round" /><line x1="554.8" y1="418" x2="554.8" y2="36" 
            stroke="#000000" stroke-width="2" stroke-linecap="round" /><line x1="572.8" y1="418" x2="572.8" y2="406" 
            stroke="#000000" stroke-width="2" stroke-linecap="round" /><line x1="554.8" y1="46" x2="554.8" y2="22" 
                 stroke="#000000" stroke-width="2" stroke-linecap="round" /><line x1="572.8" y1="46" x2="572.8" y2="406" 
              stroke="#000000" stroke-width="2" stroke-linecap="round" /><line x1="572.8" y1="406" x2="590.8" y2="406" 
            stroke="#000000" stroke-width="2" stroke-linecap="round" /><line x1="572.8" y1="406" x2="572.8" y2="36" 
            stroke="#000000" stroke-width="2" stroke-linecap="round" /><line x1="590.8" y1="406" x2="590.8" y2="394" 
            stroke="#000000" stroke-width="2" stroke-linecap="round" /><line x1="572.8" y1="46" x2="572.8" y2="22" 
                 stroke="#000000" stroke-width="2" stroke-linecap="round" /><line x1="590.8" y1="46" x2="590.8" y2="394" 
              stroke="#000000" stroke-width="2" stroke-linecap="round" /><line x1="590.8" y1="394" x2="608.8" y2="394" 
            stroke="#000000" stroke-width="2" stroke-linecap="round" /><line x1="590.8" y1="394" x2="590.8" y2="36" 
            stroke="#000000" stroke-width="2" stroke-linecap="round" /><line x1="608.8" y1="394" x2="608.8" y2="382" 
            stroke="#000000" stroke-width="2" stroke-linecap="round" /><line x1="590.8" y1="46" x2="590.8" y2="22" 
                 stroke="#000000" stroke-width="2" stroke-linecap="round" /><line x1="608.8" y1="46" x2="608.8" y2="382" 
              stroke="#000000" stroke-width="2" stroke-linecap="round" /><line x1="608.8" y1="382" x2="626.8" y2="382" 
            stroke="#000000" stroke-width="2" stroke-linecap="round" /><line x1="608.8" y1="382" x2="608.8" y2="36" 
            stroke="#000000" stroke-width="2" stroke-linecap="round" /><line x1="626.8" y1="382" x2="626.8" y2="370" 
            stroke="#000000" stroke-width="2" stroke-linecap="round" /><line x1="608.8" y1="46" x2="608.8" y2="22" 
                 stroke="#000000" stroke-width="2" stroke-linecap="round" /><line x1="626.8" y1="46" x2="626.8" y2="370" 
              stroke="#000000" stroke-width="2" stroke-linecap="round" /><line x1="626.8" y1="370" x2="644.8" y2="370" 
            stroke="#000000" stroke-width="2" stroke-linecap="round" /><line x1="626.8" y1="370" x2="626.8" y2="36" 
            stroke="#000000" stroke-width="2" stroke-linecap="round" /><line x1="644.8" y1="370" x2="644.8" y2="358" 
            stroke="#000000" stroke-width="2" stroke-linecap="round" /><line x1="626.8" y1="46" x2="626.8" y2="22" 
                 stroke="#000000" stroke-width="2" stroke-linecap="round" /><line x1="644.8" y1="46" x2="644.8" y2="358" 
              stroke="#000000" stroke-width="2" stroke-linecap="round" /><line x1="644.8" y1="358" x2="662.8" y2="358" 
            stroke="#000000" stroke-width="2" stroke-linecap="round" /><line x1="644.8" y1="358" x2="644.8" y2="36" 
            stroke="#000000" stroke-width="2" stroke-linecap="round" /><line x1="662.8" y1="358" x2="662.8" y2="346" 
            stroke="#000000" stroke-width="2" stroke-linecap="round" /><line x1="644.8" y1="46" x2="644.8" y2="22" 
                 stroke="#000000" stroke-width="2" stroke-linecap="round" /><line x1="662.8" y1="46" x2="662.8" y2="346" 
              stroke="#000000" stroke-width="2" stroke-linecap="round" /><line x1="662.8" y1="346" x2="680.8" y2="346" 
            stroke="#000000" stroke-width="2" stroke-linecap="round" /><line x1="662.8" y1="346" x2="662.8" y2="36" 
            stroke="#000000" stroke-width="2" stroke-linecap="round" /><line x1="680.8" y1="346" x2="680.8" y2="334" 
            stroke="#000000" stroke-width="2" stroke-linecap="round" /><line x1="662.8" y1="46" x2="662.8" y2="22" 
                 stroke="#000000" stroke-width="2" stroke-linecap="round" /><line x1="680.8" y1="46" x2="680.8" y2="334" 
              stroke="#000000" stroke-width="2" stroke-linecap="round" /><line x1="680.8" y1="334" x2="698.8" y2="334" 
            stroke="#000000" stroke-width="2" stroke-linecap="round" /><line x1="680.8" y1="334" x2="680.8" y2="36" 
            stroke="#000000" stroke-width="2" stroke-linecap="round" /><line x1="698.8" y1="334" x2="698.8" y2="322" 
            stroke="#000000" stroke-width="2" stroke-linecap="round" /><line x1="680.8" y1="46" x2="680.8" y2="22" 
                 stroke="#000000" stroke-width="2" stroke-linecap="round" /><line x1="698.8" y1="46" x2="698.8" y2="322" 
              stroke="#000000" stroke-width="2" stroke-linecap="round" /><line x1="698.8" y1="322" x2="716.8" y2="322" 
            stroke="#000000" stroke-width="2" stroke-linecap="round" /><line x1="698.8" y1="322" x2="698.8" y2="36" 
            stroke="#000000" stroke-width="2" stroke-linecap="round" /><line x1="716.8" y1="322" x2="716.8" y2="310" 
            stroke="#000000" stroke-width="2" stroke-linecap="round" /><line x1="698.8" y1="46" x2="698.8" y2="22" 
                 stroke="#000000" stroke-width="2" stroke-linecap="round" /><line x1="716.8" y1="46" x2="716.8" y2="310" 
              stroke="#000000" stroke-width="2" stroke-linecap="round" /><line x1="716.8" y1="310" x2="734.8" y2="310" 
            stroke="#000000" stroke-width="2" stroke-linecap="round" /><line x1="716.8" y1="310" x2="716.8" y2="36" 
            stroke="#000000" stroke-width="2" stroke-linecap="round" /><line x1="734.8" y1="310" x2="734.8" y2="298" 
            stroke="#000000" stroke-width="2" stroke-linecap="round" /><line x1="716.8" y1="46" x2="716.8" y2="22" 
                 stroke="#000000" stroke-width="2" stroke-linecap="round" /><line x1="734.8" y1="46" x2="734.8" y2="298" 
              stroke="#000000" stroke-width="2" stroke-linecap="round" /><line x1="734.8" y1="298" x2="752.8" y2="298" 
            stroke="#000000" stroke-width="2" stroke-linecap="round" /><line x1="734.8" y1="298" x2="734.8" y2="36" 
            stroke="#000000" stroke-width="2" stroke-linecap="round" /><line x1="752.8" y1="298" x2="752.8" y2="286" 
            stroke="#000000" stroke-width="2" stroke-linecap="round" /><line x1="734.8" y1="46" x2="734.8" y2="22" 
                 stroke="#000000" stroke-width="2" stroke-linecap="round" /><line x1="752.8" y1="46" x2="752.8" y2="286" 
              stroke="#000000" stroke-width="2" stroke-linecap="round" /><line x1="752.8" y1="286" x2="770.8" y2="286" 
            stroke="#000000" stroke-width="2" stroke-linecap="round" /><line x1="752.8" y1="286" x2="752.8" y2="36" 
            stroke="#000000" stroke-width="2" stroke-linecap="round" /><line x1="770.8" y1="286" x2="770.8" y2="274" 
            stroke="#000000" stroke-width="2" stroke-linecap="round" /><line x1="752.8" y1="46" x2="752.8" y2="22" 
                 stroke="#000000" stroke-width="2" stroke-linecap="round" /><line x1="770.8" y1="46" x2="770.8" y2="274" 
              stroke="#000000" stroke-width="2" stroke-linecap="round" /><line x1="770.8" y1="274" x2="788.8" y2="274" 
            stroke="#000000" stroke-width="2" stroke-linecap="round" /><line x1="770.8" y1="274" x2="770.8" y2="36" 
            stroke="#000000" stroke-width="2" stroke-linecap="round" /><line x1="788.8" y1="274" x2="788.8" y2="262" 
            stroke="#000000" stroke-width="2" stroke-linecap="round" /><line x1="770.8" y1="46" x2="770.8" y2="22" 
                 stroke="#000000" stroke-width="2" stroke-linecap="round" /><line x1="788.8" y1="46" x2="788.8" y2="262" 
              stroke="#000000" stroke-width="2" stroke-linecap="round" /><line x1="788.8" y1="262" x2="806.8" y2="262" 
            stroke="#000000" stroke-width="2" stroke-linecap="round" /><line x1="788.8" y1="262" x2="788.8" y2="36" 
            stroke="#000000" stroke-width="2" stroke-linecap="round" /><line x1="806.8" y1="262" x2="806.8" y2="250" 
            stroke="#000000" stroke-width="2" stroke-linecap="round" /><line x1="788.8" y1="46" x2="788.8" y2="22" 
                 stroke="#000000" stroke-width="2" stroke-linecap="round" /><line x1="806.8" y1="46" x2="806.8" y2="250" 
              stroke="#000000" stroke-width="2" stroke-linecap="round" /><line x1="806.8" y1="250" x2="824.8" y2="250" 
            stroke="#000000" stroke-width="2" stroke-linecap="round" /><line x1="806.8" y1="250" x2="806.8" y2="36" 
            stroke="#000000" stroke-width="2" stroke-linecap="round" /><line x1="824.8" y1="250" x2="824.8" y2="238" 
            stroke="#000000" stroke-width="2" stroke-linecap="round" /><line x1="806.8" y1="46" x2="806.8" y2="22" 
                 stroke="#000000" stroke-width="2" stroke-linecap="round" /><line x1="824.8" y1="46" x2="824.8" y2="238" 
              stroke="#000000" stroke-width="2" stroke-linecap="round" /><line x1="824.8" y1="238" x2="842.8" y2="238" 
            stroke="#000000" stroke-width="2" stroke-linecap="round" /><line x1="824.8" y1="238" x2="824.8" y2="36" 
            stroke="#000000" stroke-width="2" stroke-linecap="round" /><line x1="842.8" y1="238" x2="842.8" y2="226" 
            stroke="#000000" stroke-width="2" stroke-linecap="round" /><line x1="824.8" y1="46" x2="824.8" y2="22" 
                 stroke="#000000" stroke-width="2" stroke-linecap="round" /><line x1="842.8" y1="46" x2="842.8" y2="226" 
              stroke="#000000" stroke-width="2" stroke-linecap="round" /><line x1="842.8" y1="226" x2="860.8" y2="226" 
            stroke="#000000" stroke-width="2" stroke-linecap="round" /><line x1="842.8" y1="226" x2="842.8" y2="36" 
            stroke="#000000" stroke-width="2" stroke-linecap="round" /><line x1="860.8" y1="226" x2="860.8" y2="214" 
            stroke="#000000" stroke-width="2" stroke-linecap="round" /><line x1="842.8" y1="46" x2="842.8" y2="22" 
                 stroke="#000000" stroke-width="2" stroke-linecap="round" /><line x1="860.8" y1="46" x2="860.8" y2="214" 
              stroke="#000000" stroke-width="2" stroke-linecap="round" /><line x1="860.8" y1="214" x2="878.8" y2="214" 
            stroke="#000000" stroke-width="2" stroke-linecap="round" /><line x1="860.8" y1="214" x2="860.8" y2="36" 
            stroke="#000000" stroke-width="2" stroke-linecap="round" /><line x1="878.8" y1="214" x2="878.8" y2="202" 
            stroke="#000000" stroke-width="2" stroke-linecap="round" /><line x1="860.8" y1="46" x2="860.8" y2="22" 
                 stroke="#000000" stroke-width="2" stroke-linecap="round" /><line x1="878.8" y1="46" x2="878.8" y2="202" 
              stroke="#000000" stroke-width="2" stroke-linecap="round" /><line x1="878.8" y1="202" x2="896.8" y2="202" 
            stroke="#000000" stroke-width="2" stroke-linecap="round" /><line x1="878.8" y1="202" x2="878.8" y2="36" 
            stroke="#000000" stroke-width="2" stroke-linecap="round" /><line x1="896.8" y1="202" x2="896.8" y2="190" 
            stroke="#000000" stroke-width="2" stroke-linecap="round" /><line x1="878.8" y1="46" x2="878.8" y2="22" 
                 stroke="#000000" stroke-width="2" stroke-linecap="round" /><line x1="896.8" y1="46" x2="896.8" y2="190" 
              stroke="#000000" stroke-width="2" stroke-linecap="round" /><line x1="896.8" y1="190" x2="914.8" y2="190" 
            stroke="#000000" stroke-width="2" stroke-linecap="round" /><line x1="896.8" y1="190" x2="896.8" y2="36" 
            stroke="#000000" stroke-width="2" stroke-linecap="round" /><line x1="914.8" y1="190" x2="914.8" y2="178" 
            stroke="#000000" stroke-width="2" stroke-linecap="round" /><line x1="896.8" y1="46" x2="896.8" y2="22" 
                 stroke="#000000" stroke-width="2" stroke-linecap="round" /><line x1="914.8" y1="46" x2="914.8" y2="178" 
              stroke="#000000" stroke-width="2" stroke-linecap="round" /><line x1="914.8" y1="178" x2="932.8" y2="178" 
            stroke="#000000" stroke-width="2" stroke-linecap="round" /><line x1="914.8" y1="178" x2="914.8" y2="36" 
            stroke="#000000" stroke-width="2" stroke-linecap="round" /><line x1="932.8" y1="178" x2="932.8" y2="166" 
            stroke="#000000" stroke-width="2" stroke-linecap="round" /><line x1="914.8" y1="46" x2="914.8" y2="22" 
                 stroke="#000000" stroke-width="2" stroke-linecap="round" /><line x1="932.8" y1="46" x2="932.8" y2="166" 
              stroke="#000000" stroke-width="2" stroke-linecap="round" /><line x1="932.8" y1="166" x2="950.8" y2="166" 
            stroke="#000000" stroke-width="2" stroke-linecap="round" /><line x1="932.8" y1="166" x2="932.8" y2="36" 
            stroke="#000000" stroke-width="2" stroke-linecap="round" /><line x1="950.8" y1="166" x2="950.8" y2="154" 
            stroke="#000000" stroke-width="2" stroke-linecap="round" /><line x1="932.8" y1="46" x2="932.8" y2="22" 
                 stroke="#000000" stroke-width="2" stroke-linecap="round" /><line x1="950.8" y1="46" x2="950.8" y2="154" 
              stroke="#000000" stroke-width="2" stroke-linecap="round" /><line x1="950.8" y1="154" x2="968.8" y2="154" 
            stroke="#000000" stroke-width="2" stroke-linecap="round" /><line x1="950.8" y1="154" x2="950.8" y2="36" 
            stroke="#000000" stroke-width="2" stroke-linecap="round" /><line x1="968.8" y1="154" x2="968.8" y2="142" 
            stroke="#000000" stroke-width="2" stroke-linecap="round" /><line x1="950.8" y1="46" x2="950.8" y2="22" 
                 stroke="#000000" stroke-width="2" stroke-linecap="round" /><line x1="968.8" y1="46" x2="968.8" y2="142" 
              stroke="#000000" stroke-width="2" stroke-linecap="round" /><line x1="968.8" y1="142" x2="986.8" y2="142" 
            stroke="#000000" stroke-width="2" stroke-linecap="round" /><line x1="968.8" y1="142" x2="968.8" y2="36" 
            stroke="#000000" stroke-width="2" stroke-linecap="round" /><line x1="986.8" y1="142" x2="986.8" y2="130" 
            stroke="#000000" stroke-width="2" stroke-linecap="round" /><line x1="968.8" y1="46" x2="968.8" y2="22" 
                 stroke="#000000" stroke-width="2" stroke-linecap="round" /><line x1="986.8" y1="46" x2="986.8" y2="130" 
              stroke="#000000" stroke-width="2" stroke-linecap="round" /><line x1="986.8" y1="130" x2="1004.8" y2="130" 
            stroke="#000000" stroke-width="2" stroke-linecap="round" /><line x1="986.8" y1="130" x2="986.8" y2="36" 
            stroke="#000000" stroke-width="2" stroke-linecap="round" /><line x1="1004.8" y1="130" x2="1004.8" y2="118" 
            stroke="#000000" stroke-width="2" stroke-linecap="round" /><line x1="986.8" y1="46" x2="986.8" y2="22" 
                 stroke="#000000" stroke-width="2" stroke-linecap="round" /><line x1="1004.8" y1="46" x2="1004.8" y2="118" 
              stroke="#000000" stroke-width="2" stroke-linecap="round" /><line x1="1004.8" y1="118" x2="1022.8" y2="118" 
            stroke="#000000" stroke-width="2" stroke-linecap="round" /><line x1="1004.8" y1="118" x2="1004.8" y2="36" 
            stroke="#000000" stroke-width="2" stroke-linecap="round" /><line x1="1022.8" y1="118" x2="1022.8" y2="106" 
            stroke="#000000" stroke-width="2" stroke-linecap="round" /><line x1="1004.8" y1="46" x2="1004.8" y2="22" 
                 stroke="#000000" stroke-width="2" stroke-linecap="round" /><line x1="1022.8" y1="46" x2="1022.8" y2="106" 
              stroke="#000000" stroke-width="2" stroke-linecap="round" /><line x1="1022.8" y1="106" x2="1040.8" y2="106" 
            stroke="#000000" stroke-width="2" stroke-linecap="round" /><line x1="1022.8" y1="106" x2="1022.8" y2="36" 
            stroke="#000000" stroke-width="2" stroke-linecap="round" /><line x1="1040.8" y1="106" x2="1040.8" y2="94" 
            stroke="#000000" stroke-width="2" stroke-linecap="round" /><line x1="1022.8" y1="46" x2="1022.8" y2="22" 
                 stroke="#000000" stroke-width="2" stroke-linecap="round" /><line x1="1040.8" y1="46" x2="1040.8" y2="94" 
              stroke="#000000" stroke-width="2" stroke-linecap="round" /><line x1="1040.8" y1="94" x2="1058.8" y2="94" 
            stroke="#000000" stroke-width="2" stroke-linecap="round" /><line x1="1040.8" y1="94" x2="1040.8" y2="36" 
            stroke="#000000" stroke-width="2" stroke-linecap="round" /><line x1="1058.8" y1="94" x2="1058.8" y2="82" 
            stroke="#000000" stroke-width="2" stroke-linecap="round" /><line x1="1040.8" y1="46" x2="1040.8" y2="22" 
                 stroke="#000000" stroke-width="2" stroke-linecap="round" /><line x1="1058.8" y1="46" x2="1058.8" y2="82" 
              stroke="#000000" stroke-width="2" stroke-linecap="round" /><line x1="1058.8" y1="82" x2="1076.8" y2="82" 
            stroke="#000000" stroke-width="2" stroke-linecap="round" /><line x1="1058.8" y1="82" x2="1058.8" y2="36" 
            stroke="#000000" stroke-width="2" stroke-linecap="round" /><line x1="1076.8" y1="82" x2="1076.8" y2="70" 
            stroke="#000000" stroke-width="2" stroke-linecap="round" /><line x1="1058.8" y1="46" x2="1058.8" y2="22" 
                 stroke="#000000" stroke-width="2" stroke-linecap="round" /><line x1="1076.8" y1="46" x2="1076.8" y2="70" 
              stroke="#000000" stroke-width="2" stroke-linecap="round" /><line x1="1076.8" y1="70" x2="1094.8" y2="70" 
            stroke="#000000" stroke-width="2" stroke-linecap="round" /><line x1="1076.8" y1="70" x2="1076.8" y2="36" 
            stroke="#000000" stroke-width="2" stroke-linecap="round" /><line x1="1094.8" y1="70" x2="1094.8" y2="58" 
            stroke="#000000" stroke-width="2" stroke-linecap="round" /><line x1="1076.8" y1="46" x2="1076.8" y2="22" 
                 stroke="#000000" stroke-width="2" stroke-linecap="round" /><line x1="1094.8" y1="46" x2="1094.8" y2="58" 
              stroke="#000000" stroke-width="2" stroke-linecap="round" /><line x1="1094.8" y1="58" x2="1112.8" y2="58" 
            stroke="#000000" stroke-width="2" stroke-linecap="round" /><line x1="1094.8" y1="58" x2="1094.8" y2="36" 
            stroke="#000000" stroke-width="2" stroke-linecap="round" /><line x1="1112.8" y1="58" x2="1112.8" y2="46" 
            stroke="#000000" stroke-width="2" stroke-linecap="round" /><line x1="1094.8" y1="46" x2="1094.8" y2="22" 
                 stroke="#000000" stroke-width="2" stroke-linecap="round" /><line x1="1112.8" y1="46" x2="1130.8" y2="46" 
            stroke="#000000" stroke-width="2" stroke-linecap="round" /><line x1="1112.8" y1="46" x2="1112.8" y2="36" 
            stroke="#000000" stroke-width="2" stroke-linecap="round" /><line x1="1130.8" y1="46" x2="1130.8" y2="36" 
            stroke="#000000" stroke-width="2" stroke-linecap="round" /><line x1="1112.8" y1="46" x2="1112.8" y2="22" 
                 stroke="#000000" stroke-width="2" stroke-linecap="round" /><line x1="1130.8" y1="46" x2="1130.8" y2="34" 
                 stroke="#000000" stroke-width="2" stroke-linecap="round" /></g></svg>