<svg xmlns="http://www.w3.org/2000/svg" width="1200" height="800" 
               viewBox="0 0 1200 800" preserveAspectRatio="xMidYMid meet"><rect width="1200" height="800" fill="#282a36" /><g transform="translate(324.99999999999994, 242.85714285714283)"><line x1="20.10204081632653" y1="10" x2="936.0204081632653" y2="10" 
                 stroke="#bd93f9" stroke-width="2.4" stroke-linecap="round" /><text x="20.10204081632653" y="5" font-family="monospace" font-size="14" 
                    fill="#bd93f9" font-weight="bold">λc</text><line x1="20.10204081632653" y1="144.6938775510204" x2="20.10204081632653" y2="304.64285714285717" 
                stroke="#ffb86c" stroke-width="2" /><line x1="20.10204081632653" y1="304.64285714285717" x2="542.0408163265306" y2="304.64285714285717" 
              stroke="#ffb86c" stroke-width="2" /><line x1="20.10204081632653" y1="304.64285714285717" x2="20.10204081632653" y2="136.27551020408163" 
              stroke="#ffb86c" stroke-width="2" /><line x1="542.0408163265306" y1="304.64285714285717" x2="542.0408163265306" y2="296.2244897959184" 
              stroke="#ffb86c" stroke-width="2" /><line x1="20.10204081632653" y1="77.34693877551021" x2="20.10204081632653" y2="136.27551020408163" 
                stroke="#57c7ff" stroke-width="2" /><line x1="20.10204081632653" y1="136.27551020408163" x2="104.2857142857143" y2="136.27551020408163" 
              stroke="#57c7ff" stroke-width="2" /><line x1="20.10204081632653" y1="136.27551020408163" x2="20.10204081632653" y2="68.92857142857143" 
              stroke="#57c7ff" stroke-width="2" /><line x1="104.2857142857143" y1="136.27551020408163" x2="104.2857142857143" y2="127.85714285714286" 
              stroke="#57c7ff" stroke-width="2" /><line x1="20.10204081632653" y1="18.418367346938776" x2="91.65816326530614" y2="18.418367346938776" 
                 stroke="#5af78e" stroke-width="2.4" stroke-linecap="round" /><text x="20.10204081632653" y="5" font-family="monospace" font-size="14" 
                    fill="#5af78e" font-weight="bold">λm</text><line x1="20.10204081632653" y1="26.836734693877553" x2="91.65816326530614" y2="26.836734693877553" 
                 stroke="#f1fa8c" stroke-width="2.4" stroke-linecap="round" /><text x="20.10204081632653" y="5" font-family="monospace" font-size="14" 
                    fill="#f1fa8c" font-weight="bold">λn</text><line x1="20.10204081632653" y1="35.255102040816325" x2="91.65816326530614" y2="35.255102040816325" 
                 stroke="#ff79c6" stroke-width="2.4" stroke-linecap="round" /><line x1="20.10204081632653" y1="43.673469387755105" x2="91.65816326530614" y2="43.673469387755105" 
                 stroke="#bd93f9" stroke-width="2.4" stroke-linecap="round" /><text x="20.10204081632653" y="5" font-family="monospace" font-size="14" 
                    fill="#bd93f9" font-weight="bold">λx</text><line x1="20.10204081632653" y1="60.510204081632665" x2="20.10204081632653" y2="68.92857142857144" 
                stroke="#ffb86c" stroke-width="2" /><line x1="20.10204081632653" y1="68.92857142857144" x2="53.775510204081634" y2="68.92857142857144" 
              stroke="#ffb86c" stroke-width="2" /><line x1="20.10204081632653" y1="68.92857142857144" x2="20.10204081632653" y2="52.091836734693885" 
              stroke="#ffb86c" stroke-width="2" /><line x1="53.775510204081634" y1="68.92857142857144" x2="53.775510204081634" y2="60.510204081632665" 
              stroke="#ffb86c" stroke-width="2" /><line x1="20.10204081632653" y1="52.091836734693885" x2="36.93877551020408" y2="52.091836734693885" 
              stroke="#ff5555" stroke-width="2" /><line x1="20.10204081632653" y1="52.091836734693885" x2="20.10204081632653" y2="43.673469387755105" 
              stroke="#ff5555" stroke-width="2" /><line x1="36.93877551020408" y1="52.091836734693885" x2="36.93877551020408" y2="43.673469387755105" 
              stroke="#ff5555" stroke-width="2" /><line x1="20.10204081632653" y1="52.091836734693885" x2="20.10204081632653" y2="18.418367346938776" 
                 stroke="#ff5555" stroke-width="2" /><text x="23.10204081632653" y="10" font-family="monospace" font-size="12" 
                    fill="#ff5555" font-weight="bold">m</text><line x1="36.93877551020408" y1="52.091836734693885" x2="36.93877551020408" y2="35.255102040816325" 
                 stroke="#ff5555" stroke-width="2" /><line x1="87.44897959183675" y1="52.091836734693885" x2="87.44897959183675" y2="60.510204081632665" 
                stroke="#50fa7b" stroke-width="2" /><line x1="53.775510204081634" y1="60.510204081632665" x2="87.44897959183675" y2="60.510204081632665" 
              stroke="#50fa7b" stroke-width="2" /><line x1="53.775510204081634" y1="60.510204081632665" x2="53.775510204081634" y2="52.091836734693885" 
              stroke="#50fa7b" stroke-width="2" /><line x1="87.44897959183675" y1="60.510204081632665" x2="87.44897959183675" y2="43.673469387755105" 
              stroke="#50fa7b" stroke-width="2" /><line x1="53.775510204081634" y1="52.091836734693885" x2="70.61224489795919" y2="52.091836734693885" 
              stroke="#8be9fd" stroke-width="2" /><line x1="53.775510204081634" y1="52.091836734693885" x2="53.775510204081634" y2="43.673469387755105" 
              stroke="#8be9fd" stroke-width="2" /><line x1="70.61224489795919" y1="52.091836734693885" x2="70.61224489795919" y2="43.673469387755105" 
              stroke="#8be9fd" stroke-width="2" /><line x1="53.775510204081634" y1="52.091836734693885" x2="53.775510204081634" y2="26.836734693877553" 
                 stroke="#ff5555" stroke-width="2" /><text x="23.10204081632653" y="10" font-family="monospace" font-size="12" 
                    fill="#ff5555" font-weight="bold">n</text><line x1="70.61224489795919" y1="52.091836734693885" x2="70.61224489795919" y2="35.255102040816325" 
                 stroke="#ff5555" stroke-width="2" /><line x1="87.44897959183675" y1="52.091836734693885" x2="87.44897959183675" y2="43.673469387755105" 
                 stroke="#ff5555" stroke-width="2" /><text x="23.10204081632653" y="10" font-family="monospace" font-size="12" 
                    fill="#ff5555" font-weight="bold">x</text><line x1="104.2857142857143" y1="68.92857142857143" x2="104.2857142857143" y2="127.85714285714288" 
                stroke="#5af78e" stroke-width="2" /><line x1="104.2857142857143" y1="127.85714285714288" x2="171.63265306122452" y2="127.85714285714288" 
              stroke="#5af78e" stroke-width="2" /><line x1="104.2857142857143" y1="127.85714285714288" x2="104.2857142857143" y2="60.510204081632665" 
              stroke="#5af78e" stroke-width="2" /><line x1="171.63265306122452" y1="127.85714285714288" x2="171.63265306122452" y2="119.4387755102041" 
              stroke="#5af78e" stroke-width="2" /><line x1="154.79591836734696" y1="18.418367346938776" x2="154.79591836734696" y2="60.510204081632665" 
                stroke="#e67e22" stroke-width="2" /><line x1="104.2857142857143" y1="60.510204081632665" x2="154.79591836734696" y2="60.510204081632665" 
              stroke="#e67e22" stroke-width="2" /><line x1="104.2857142857143" y1="60.510204081632665" x2="104.2857142857143" y2="52.091836734693885" 
              stroke="#e67e22" stroke-width="2" /><line x1="154.79591836734696" y1="60.510204081632665" x2="154.79591836734696" y2="10" 
              stroke="#e67e22" stroke-width="2" /><line x1="104.2857142857143" y1="18.418367346938776" x2="147.21938775510205" y2="18.418367346938776" 
                 stroke="#2ecc71" stroke-width="2.4" stroke-linecap="round" /><text x="20.10204081632653" y="5" font-family="monospace" font-size="14" 
                    fill="#2ecc71" font-weight="bold">λm</text><line x1="104.2857142857143" y1="26.836734693877553" x2="147.21938775510205" y2="26.836734693877553" 
                 stroke="#3498db" stroke-width="2.4" stroke-linecap="round" /><text x="20.10204081632653" y="5" font-family="monospace" font-size="14" 
                    fill="#3498db" font-weight="bold">λn</text><line x1="104.2857142857143" y1="35.255102040816325" x2="147.21938775510205" y2="35.255102040816325" 
                 stroke="#e74c3c" stroke-width="2.4" stroke-linecap="round" /><line x1="104.2857142857143" y1="43.673469387755105" x2="104.2857142857143" y2="52.091836734693885" 
                stroke="#ff6ac1" stroke-width="2" /><line x1="104.2857142857143" y1="52.091836734693885" x2="121.12244897959185" y2="52.091836734693885" 
              stroke="#ff6ac1" stroke-width="2" /><line x1="104.2857142857143" y1="52.091836734693885" x2="104.2857142857143" y2="35.255102040816325" 
              stroke="#ff6ac1" stroke-width="2" /><line x1="121.12244897959185" y1="52.091836734693885" x2="121.12244897959185" y2="43.673469387755105" 
              stroke="#ff6ac1" stroke-width="2" /><line x1="104.2857142857143" y1="43.673469387755105" x2="104.2857142857143" y2="18.418367346938776" 
                 stroke="#ff5555" stroke-width="2" /><text x="23.10204081632653" y="10" font-family="monospace" font-size="12" 
                    fill="#ff5555" font-weight="bold">m</text><line x1="121.12244897959185" y1="43.673469387755105" x2="137.9591836734694" y2="43.673469387755105" 
              stroke="#57c7ff" stroke-width="2" /><line x1="121.12244897959185" y1="43.673469387755105" x2="121.12244897959185" y2="35.255102040816325" 
              stroke="#57c7ff" stroke-width="2" /><line x1="137.9591836734694" y1="43.673469387755105" x2="137.9591836734694" y2="35.255102040816325" 
              stroke="#57c7ff" stroke-width="2" /><line x1="121.12244897959185" y1="43.673469387755105" x2="121.12244897959185" y2="26.836734693877553" 
                 stroke="#ff5555" stroke-width="2" /><text x="23.10204081632653" y="10" font-family="monospace" font-size="12" 
                    fill="#ff5555" font-weight="bold">n</text><line x1="137.9591836734694" y1="43.673469387755105" x2="137.9591836734694" y2="35.255102040816325" 
                 stroke="#ff5555" stroke-width="2" /><line x1="154.79591836734696" y1="18.418367346938776" x2="154.79591836734696" y2="10" 
                 stroke="#ff5555" stroke-width="2" /><text x="23.10204081632653" y="10" font-family="monospace" font-size="12" 
                    fill="#ff5555" font-weight="bold">c</text><line x1="441.02040816326536" y1="77.34693877551021" x2="441.02040816326536" y2="119.4387755102041" 
                stroke="#f1fa8c" stroke-width="2" /><line x1="171.63265306122452" y1="119.4387755102041" x2="441.02040816326536" y2="119.4387755102041" 
              stroke="#f1fa8c" stroke-width="2" /><line x1="171.63265306122452" y1="119.4387755102041" x2="171.63265306122452" y2="111.02040816326532" 
              stroke="#f1fa8c" stroke-width="2" /><line x1="441.02040816326536" y1="119.4387755102041" x2="441.02040816326536" y2="68.92857142857143" 
              stroke="#f1fa8c" stroke-width="2" /><line x1="171.63265306122452" y1="111.02040816326532" x2="272.6530612244898" y2="111.02040816326532" 
              stroke="#2980b9" stroke-width="2" /><line x1="171.63265306122452" y1="111.02040816326532" x2="171.63265306122452" y2="102.60204081632654" 
              stroke="#2980b9" stroke-width="2" /><line x1="272.6530612244898" y1="111.02040816326532" x2="272.6530612244898" y2="102.60204081632654" 
              stroke="#2980b9" stroke-width="2" /><line x1="171.63265306122452" y1="18.418367346938776" x2="257.5" y2="18.418367346938776" 
                 stroke="#f1fa8c" stroke-width="2.4" stroke-linecap="round" /><text x="20.10204081632653" y="5" font-family="monospace" font-size="14" 
                    fill="#f1fa8c" font-weight="bold">λm</text><line x1="171.63265306122452" y1="26.836734693877553" x2="257.5" y2="26.836734693877553" 
                 stroke="#ff79c6" stroke-width="2.4" stroke-linecap="round" /><text x="20.10204081632653" y="5" font-family="monospace" font-size="14" 
                    fill="#ff79c6" font-weight="bold">λn</text><line x1="171.63265306122452" y1="35.255102040816325" x2="257.5" y2="35.255102040816325" 
                 stroke="#bd93f9" stroke-width="2.4" stroke-linecap="round" /><line x1="171.63265306122452" y1="43.673469387755105" x2="257.5" y2="43.673469387755105" 
                 stroke="#ffb86c" stroke-width="2.4" stroke-linecap="round" /><text x="20.10204081632653" y="5" font-family="monospace" font-size="14" 
                    fill="#ffb86c" font-weight="bold">λx</text><line x1="255.8163265306123" y1="60.510204081632665" x2="255.8163265306123" y2="102.60204081632656" 
                stroke="#50fa7b" stroke-width="2" /><line x1="171.63265306122452" y1="102.60204081632655" x2="255.8163265306123" y2="102.60204081632655" 
              stroke="#50fa7b" stroke-width="2" /><line x1="171.63265306122452" y1="102.60204081632655" x2="171.63265306122452" y2="94.18367346938778" 
              stroke="#50fa7b" stroke-width="2" /><line x1="255.8163265306123" y1="102.60204081632655" x2="255.8163265306123" y2="52.091836734693885" 
              stroke="#50fa7b" stroke-width="2" /><line x1="238.97959183673473" y1="60.510204081632665" x2="238.97959183673473" y2="94.18367346938778" 
                stroke="#ff5555" stroke-width="2" /><line x1="171.63265306122452" y1="94.18367346938778" x2="238.97959183673473" y2="94.18367346938778" 
              stroke="#ff5555" stroke-width="2" /><line x1="171.63265306122452" y1="94.18367346938778" x2="171.63265306122452" y2="85.765306122449" 
              stroke="#ff5555" stroke-width="2" /><line x1="238.97959183673473" y1="94.18367346938778" x2="238.97959183673473" y2="52.091836734693885" 
              stroke="#ff5555" stroke-width="2" /><line x1="171.63265306122452" y1="52.091836734693885" x2="171.63265306122452" y2="85.765306122449" 
                stroke="#2980b9" stroke-width="2" /><line x1="171.63265306122452" y1="85.765306122449" x2="188.46938775510205" y2="85.765306122449" 
              stroke="#2980b9" stroke-width="2" /><line x1="171.63265306122452" y1="85.765306122449" x2="171.63265306122452" y2="43.673469387755105" 
              stroke="#2980b9" stroke-width="2" /><line x1="188.46938775510205" y1="85.765306122449" x2="188.46938775510205" y2="77.34693877551022" 
              stroke="#2980b9" stroke-width="2" /><line x1="171.63265306122452" y1="52.091836734693885" x2="171.63265306122452" y2="26.836734693877553" 
                 stroke="#ff5555" stroke-width="2" /><text x="23.10204081632653" y="10" font-family="monospace" font-size="12" 
                    fill="#ff5555" font-weight="bold">n</text><line x1="188.46938775510205" y1="52.091836734693885" x2="231.40306122448982" y2="52.091836734693885" 
                 stroke="#d35400" stroke-width="2.4" stroke-linecap="round" /><text x="20.10204081632653" y="5" font-family="monospace" font-size="14" 
                    fill="#d35400" font-weight="bold">λg</text><line x1="188.46938775510205" y1="60.510204081632665" x2="231.40306122448982" y2="60.510204081632665" 
                 stroke="#1abc9c" stroke-width="2.4" stroke-linecap="round" /><text x="20.10204081632653" y="5" font-family="monospace" font-size="14" 
                    fill="#1abc9c" font-weight="bold">λh</text><line x1="188.46938775510205" y1="68.92857142857144" x2="188.46938775510205" y2="77.34693877551022" 
                stroke="#f39c12" stroke-width="2" /><line x1="188.46938775510205" y1="77.34693877551022" x2="205.3061224489796" y2="77.34693877551022" 
              stroke="#f39c12" stroke-width="2" /><line x1="188.46938775510205" y1="77.34693877551022" x2="188.46938775510205" y2="60.510204081632665" 
              stroke="#f39c12" stroke-width="2" /><line x1="205.3061224489796" y1="77.34693877551022" x2="205.3061224489796" y2="68.92857142857144" 
              stroke="#f39c12" stroke-width="2" /><line x1="188.46938775510205" y1="68.92857142857144" x2="188.46938775510205" y2="60.510204081632665" 
                 stroke="#ff5555" stroke-width="2" /><text x="23.10204081632653" y="10" font-family="monospace" font-size="12" 
                    fill="#ff5555" font-weight="bold">h</text><line x1="205.3061224489796" y1="68.92857142857144" x2="222.14285714285717" y2="68.92857142857144" 
              stroke="#9b59b6" stroke-width="2" /><line x1="205.3061224489796" y1="68.92857142857144" x2="205.3061224489796" y2="60.510204081632665" 
              stroke="#9b59b6" stroke-width="2" /><line x1="222.14285714285717" y1="68.92857142857144" x2="222.14285714285717" y2="60.510204081632665" 
              stroke="#9b59b6" stroke-width="2" /><line x1="205.3061224489796" y1="68.92857142857144" x2="205.3061224489796" y2="52.091836734693885" 
                 stroke="#ff5555" stroke-width="2" /><text x="23.10204081632653" y="10" font-family="monospace" font-size="12" 
                    fill="#ff5555" font-weight="bold">g</text><line x1="222.14285714285717" y1="68.92857142857144" x2="222.14285714285717" y2="35.255102040816325" 
                 stroke="#ff5555" stroke-width="2" /><line x1="238.97959183673473" y1="52.091836734693885" x2="253.29081632653063" y2="52.091836734693885" 
                 stroke="#27ae60" stroke-width="2.4" stroke-linecap="round" /><text x="20.10204081632653" y="5" font-family="monospace" font-size="14" 
                    fill="#27ae60" font-weight="bold">λu</text><line x1="238.97959183673473" y1="60.510204081632665" x2="238.97959183673473" y2="43.673469387755105" 
                 stroke="#ff5555" stroke-width="2" /><text x="23.10204081632653" y="10" font-family="monospace" font-size="12" 
                    fill="#ff5555" font-weight="bold">x</text><line x1="255.8163265306123" y1="52.091836734693885" x2="270.1275510204082" y2="52.091836734693885" 
                 stroke="#8be9fd" stroke-width="2.4" stroke-linecap="round" /><text x="20.10204081632653" y="5" font-family="monospace" font-size="14" 
                    fill="#8be9fd" font-weight="bold">λu</text><line x1="255.8163265306123" y1="60.510204081632665" x2="255.8163265306123" y2="52.091836734693885" 
                 stroke="#ff5555" stroke-width="2" /><text x="23.10204081632653" y="10" font-family="monospace" font-size="12" 
                    fill="#ff5555" font-weight="bold">u</text><line x1="272.6530612244898" y1="18.418367346938776" x2="415.7653061224491" y2="18.418367346938776" 
                 stroke="#d35400" stroke-width="2.4" stroke-linecap="round" /><line x1="272.6530612244898" y1="26.836734693877553" x2="415.7653061224491" y2="26.836734693877553" 
                 stroke="#1abc9c" stroke-width="2.4" stroke-linecap="round" /><text x="20.10204081632653" y="5" font-family="monospace" font-size="14" 
                    fill="#1abc9c" font-weight="bold">λx</text><line x1="272.6530612244898" y1="35.255102040816325" x2="272.6530612244898" y2="102.60204081632655" 
                stroke="#f39c12" stroke-width="2" /><line x1="272.6530612244898" y1="102.60204081632655" x2="289.48979591836735" y2="102.60204081632655" 
              stroke="#f39c12" stroke-width="2" /><line x1="272.6530612244898" y1="102.60204081632655" x2="272.6530612244898" y2="26.836734693877553" 
              stroke="#f39c12" stroke-width="2" /><line x1="289.48979591836735" y1="102.60204081632655" x2="289.48979591836735" y2="94.18367346938777" 
              stroke="#f39c12" stroke-width="2" /><line x1="272.6530612244898" y1="35.255102040816325" x2="272.6530612244898" y2="18.418367346938776" 
                 stroke="#ff5555" stroke-width="2" /><line x1="289.48979591836735" y1="35.255102040816325" x2="289.48979591836735" y2="94.18367346938777" 
                stroke="#9b59b6" stroke-width="2" /><line x1="289.48979591836735" y1="94.18367346938777" x2="306.32653061224494" y2="94.18367346938777" 
              stroke="#9b59b6" stroke-width="2" /><line x1="289.48979591836735" y1="94.18367346938777" x2="289.48979591836735" y2="26.836734693877553" 
              stroke="#9b59b6" stroke-width="2" /><line x1="306.32653061224494" y1="94.18367346938777" x2="306.32653061224494" y2="85.76530612244899" 
              stroke="#9b59b6" stroke-width="2" /><line x1="289.48979591836735" y1="35.255102040816325" x2="289.48979591836735" y2="18.418367346938776" 
                 stroke="#ff5555" stroke-width="2" /><line x1="306.32653061224494" y1="35.255102040816325" x2="306.32653061224494" y2="85.76530612244899" 
                stroke="#e67e22" stroke-width="2" /><line x1="306.32653061224494" y1="85.76530612244899" x2="323.1632653061225" y2="85.76530612244899" 
              stroke="#e67e22" stroke-width="2" /><line x1="306.32653061224494" y1="85.76530612244899" x2="306.32653061224494" y2="26.836734693877553" 
              stroke="#e67e22" stroke-width="2" /><line x1="323.1632653061225" y1="85.76530612244899" x2="323.1632653061225" y2="77.34693877551022" 
              stroke="#e67e22" stroke-width="2" /><line x1="306.32653061224494" y1="35.255102040816325" x2="306.32653061224494" y2="18.418367346938776" 
                 stroke="#ff5555" stroke-width="2" /><line x1="323.1632653061225" y1="35.255102040816325" x2="323.1632653061225" y2="77.34693877551022" 
                stroke="#2ecc71" stroke-width="2" /><line x1="323.1632653061225" y1="77.34693877551022" x2="340" y2="77.34693877551022" 
              stroke="#2ecc71" stroke-width="2" /><line x1="323.1632653061225" y1="77.34693877551022" x2="323.1632653061225" y2="26.836734693877553" 
              stroke="#2ecc71" stroke-width="2" /><line x1="340" y1="77.34693877551022" x2="340" y2="68.92857142857144" 
              stroke="#2ecc71" stroke-width="2" /><line x1="323.1632653061225" y1="35.255102040816325" x2="323.1632653061225" y2="18.418367346938776" 
                 stroke="#ff5555" stroke-width="2" /><line x1="340" y1="35.255102040816325" x2="340" y2="68.92857142857144" 
                stroke="#3498db" stroke-width="2" /><line x1="340" y1="68.92857142857144" x2="356.83673469387764" y2="68.92857142857144" 
              stroke="#3498db" stroke-width="2" /><line x1="340" y1="68.92857142857144" x2="340" y2="26.836734693877553" 
              stroke="#3498db" stroke-width="2" /><line x1="356.83673469387764" y1="68.92857142857144" x2="356.83673469387764" y2="60.510204081632665" 
              stroke="#3498db" stroke-width="2" /><line x1="340" y1="35.255102040816325" x2="340" y2="18.418367346938776" 
                 stroke="#ff5555" stroke-width="2" /><line x1="356.83673469387764" y1="35.255102040816325" x2="356.83673469387764" y2="60.510204081632665" 
                stroke="#e74c3c" stroke-width="2" /><line x1="356.83673469387764" y1="60.510204081632665" x2="373.6734693877551" y2="60.510204081632665" 
              stroke="#e74c3c" stroke-width="2" /><line x1="356.83673469387764" y1="60.510204081632665" x2="356.83673469387764" y2="26.836734693877553" 
              stroke="#e74c3c" stroke-width="2" /><line x1="373.6734693877551" y1="60.510204081632665" x2="373.6734693877551" y2="52.091836734693885" 
              stroke="#e74c3c" stroke-width="2" /><line x1="356.83673469387764" y1="35.255102040816325" x2="356.83673469387764" y2="18.418367346938776" 
                 stroke="#ff5555" stroke-width="2" /><line x1="373.6734693877551" y1="35.255102040816325" x2="373.6734693877551" y2="52.091836734693885" 
                stroke="#ff6ac1" stroke-width="2" /><line x1="373.6734693877551" y1="52.091836734693885" x2="390.5102040816327" y2="52.091836734693885" 
              stroke="#ff6ac1" stroke-width="2" /><line x1="373.6734693877551" y1="52.091836734693885" x2="373.6734693877551" y2="26.836734693877553" 
              stroke="#ff6ac1" stroke-width="2" /><line x1="390.5102040816327" y1="52.091836734693885" x2="390.5102040816327" y2="43.673469387755105" 
              stroke="#ff6ac1" stroke-width="2" /><line x1="373.6734693877551" y1="35.255102040816325" x2="373.6734693877551" y2="18.418367346938776" 
                 stroke="#ff5555" stroke-width="2" /><line x1="390.5102040816327" y1="35.255102040816325" x2="390.5102040816327" y2="43.673469387755105" 
                stroke="#57c7ff" stroke-width="2" /><line x1="390.5102040816327" y1="43.673469387755105" x2="407.3469387755103" y2="43.673469387755105" 
              stroke="#57c7ff" stroke-width="2" /><line x1="390.5102040816327" y1="43.673469387755105" x2="390.5102040816327" y2="26.836734693877553" 
              stroke="#57c7ff" stroke-width="2" /><line x1="407.3469387755103" y1="43.673469387755105" x2="407.3469387755103" y2="35.255102040816325" 
              stroke="#57c7ff" stroke-width="2" /><line x1="390.5102040816327" y1="35.255102040816325" x2="390.5102040816327" y2="18.418367346938776" 
                 stroke="#ff5555" stroke-width="2" /><line x1="407.3469387755103" y1="35.255102040816325" x2="424.1836734693879" y2="35.255102040816325" 
              stroke="#5af78e" stroke-width="2" /><line x1="407.3469387755103" y1="35.255102040816325" x2="407.3469387755103" y2="26.836734693877553" 
              stroke="#5af78e" stroke-width="2" /><line x1="424.1836734693879" y1="35.255102040816325" x2="424.1836734693879" y2="26.836734693877553" 
              stroke="#5af78e" stroke-width="2" /><line x1="407.3469387755103" y1="35.255102040816325" x2="407.3469387755103" y2="18.418367346938776" 
                 stroke="#ff5555" stroke-width="2" /><line x1="424.1836734693879" y1="35.255102040816325" x2="424.1836734693879" y2="26.836734693877553" 
                 stroke="#ff5555" stroke-width="2" /><text x="23.10204081632653" y="10" font-family="monospace" font-size="12" 
                    fill="#ff5555" font-weight="bold">x</text><line x1="441.02040816326536" y1="18.418367346938776" x2="526.887755102041" y2="18.418367346938776" 
                 stroke="#ff79c6" stroke-width="2.4" stroke-linecap="round" /><line x1="441.02040816326536" y1="26.836734693877553" x2="526.887755102041" y2="26.836734693877553" 
                 stroke="#bd93f9" stroke-width="2.4" stroke-linecap="round" /><text x="20.10204081632653" y="5" font-family="monospace" font-size="14" 
                    fill="#bd93f9" font-weight="bold">λx</text><line x1="441.02040816326536" y1="35.255102040816325" x2="441.02040816326536" y2="68.92857142857144" 
                stroke="#ffb86c" stroke-width="2" /><line x1="441.02040816326536" y1="68.92857142857144" x2="457.85714285714295" y2="68.92857142857144" 
              stroke="#ffb86c" stroke-width="2" /><line x1="441.02040816326536" y1="68.92857142857144" x2="441.02040816326536" y2="26.836734693877553" 
              stroke="#ffb86c" stroke-width="2" /><line x1="457.85714285714295" y1="68.92857142857144" x2="457.85714285714295" y2="60.510204081632665" 
              stroke="#ffb86c" stroke-width="2" /><line x1="441.02040816326536" y1="35.255102040816325" x2="441.02040816326536" y2="18.418367346938776" 
                 stroke="#ff5555" stroke-width="2" /><line x1="457.85714285714295" y1="35.255102040816325" x2="457.85714285714295" y2="60.510204081632665" 
                stroke="#50fa7b" stroke-width="2" /><line x1="457.85714285714295" y1="60.510204081632665" x2="474.6938775510204" y2="60.510204081632665" 
              stroke="#50fa7b" stroke-width="2" /><line x1="457.85714285714295" y1="60.510204081632665" x2="457.85714285714295" y2="26.836734693877553" 
              stroke="#50fa7b" stroke-width="2" /><line x1="474.6938775510204" y1="60.510204081632665" x2="474.6938775510204" y2="52.091836734693885" 
              stroke="#50fa7b" stroke-width="2" /><line x1="457.85714285714295" y1="35.255102040816325" x2="457.85714285714295" y2="18.418367346938776" 
                 stroke="#ff5555" stroke-width="2" /><line x1="474.6938775510204" y1="35.255102040816325" x2="474.6938775510204" y2="52.091836734693885" 
                stroke="#8be9fd" stroke-width="2" /><line x1="474.6938775510204" y1="52.091836734693885" x2="491.530612244898" y2="52.091836734693885" 
              stroke="#8be9fd" stroke-width="2" /><line x1="474.6938775510204" y1="52.091836734693885" x2="474.6938775510204" y2="26.836734693877553" 
              stroke="#8be9fd" stroke-width="2" /><line x1="491.530612244898" y1="52.091836734693885" x2="491.530612244898" y2="43.673469387755105" 
              stroke="#8be9fd" stroke-width="2" /><line x1="474.6938775510204" y1="35.255102040816325" x2="474.6938775510204" y2="18.418367346938776" 
                 stroke="#ff5555" stroke-width="2" /><line x1="491.530612244898" y1="35.255102040816325" x2="491.530612244898" y2="43.673469387755105" 
                stroke="#ff5555" stroke-width="2" /><line x1="491.530612244898" y1="43.673469387755105" x2="508.3673469387756" y2="43.673469387755105" 
              stroke="#ff5555" stroke-width="2" /><line x1="491.530612244898" y1="43.673469387755105" x2="491.530612244898" y2="26.836734693877553" 
              stroke="#ff5555" stroke-width="2" /><line x1="508.3673469387756" y1="43.673469387755105" x2="508.3673469387756" y2="35.255102040816325" 
              stroke="#ff5555" stroke-width="2" /><line x1="491.530612244898" y1="35.255102040816325" x2="491.530612244898" y2="18.418367346938776" 
                 stroke="#ff5555" stroke-width="2" /><line x1="508.3673469387756" y1="35.255102040816325" x2="525.2040816326532" y2="35.255102040816325" 
              stroke="#27ae60" stroke-width="2" /><line x1="508.3673469387756" y1="35.255102040816325" x2="508.3673469387756" y2="26.836734693877553" 
              stroke="#27ae60" stroke-width="2" /><line x1="525.2040816326532" y1="35.255102040816325" x2="525.2040816326532" y2="26.836734693877553" 
              stroke="#27ae60" stroke-width="2" /><line x1="508.3673469387756" y1="35.255102040816325" x2="508.3673469387756" y2="18.418367346938776" 
                 stroke="#ff5555" stroke-width="2" /><line x1="525.2040816326532" y1="35.255102040816325" x2="525.2040816326532" y2="26.836734693877553" 
                 stroke="#ff5555" stroke-width="2" /><text x="23.10204081632653" y="10" font-family="monospace" font-size="12" 
                    fill="#ff5555" font-weight="bold">x</text><line x1="542.0408163265306" y1="18.418367346938776" x2="1014.3112244897959" y2="18.418367346938776" 
                 stroke="#50fa7b" stroke-width="2.4" stroke-linecap="round" /><line x1="542.0408163265306" y1="26.836734693877553" x2="1014.3112244897959" y2="26.836734693877553" 
                 stroke="#8be9fd" stroke-width="2.4" stroke-linecap="round" /><text x="20.10204081632653" y="5" font-family="monospace" font-size="14" 
                    fill="#8be9fd" font-weight="bold">λx</text><line x1="542.0408163265306" y1="35.255102040816325" x2="542.0408163265306" y2="296.22448979591843" 
                stroke="#ff5555" stroke-width="2" /><line x1="542.0408163265306" y1="296.22448979591843" x2="558.8775510204082" y2="296.22448979591843" 
              stroke="#ff5555" stroke-width="2" /><line x1="542.0408163265306" y1="296.22448979591843" x2="542.0408163265306" y2="26.836734693877553" 
              stroke="#ff5555" stroke-width="2" /><line x1="558.8775510204082" y1="296.22448979591843" x2="558.8775510204082" y2="287.80612244897964" 
              stroke="#ff5555" stroke-width="2" /><line x1="542.0408163265306" y1="35.255102040816325" x2="542.0408163265306" y2="18.418367346938776" 
                 stroke="#ff5555" stroke-width="2" /><line x1="558.8775510204082" y1="35.255102040816325" x2="558.8775510204082" y2="287.80612244897964" 
                stroke="#27ae60" stroke-width="2" /><line x1="558.8775510204082" y1="287.80612244897964" x2="575.7142857142858" y2="287.80612244897964" 
              stroke="#27ae60" stroke-width="2" /><line x1="558.8775510204082" y1="287.80612244897964" x2="558.8775510204082" y2="26.836734693877553" 
              stroke="#27ae60" stroke-width="2" /><line x1="575.7142857142858" y1="287.80612244897964" x2="575.7142857142858" y2="279.38775510204084" 
              stroke="#27ae60" stroke-width="2" /><line x1="558.8775510204082" y1="35.255102040816325" x2="558.8775510204082" y2="18.418367346938776" 
                 stroke="#ff5555" stroke-width="2" /><line x1="575.7142857142858" y1="35.255102040816325" x2="575.7142857142858" y2="279.3877551020409" 
                stroke="#2980b9" stroke-width="2" /><line x1="575.7142857142858" y1="279.3877551020409" x2="592.5510204081633" y2="279.3877551020409" 
              stroke="#2980b9" stroke-width="2" /><line x1="575.7142857142858" y1="279.3877551020409" x2="575.7142857142858" y2="26.836734693877553" 
              stroke="#2980b9" stroke-width="2" /><line x1="592.5510204081633" y1="279.3877551020409" x2="592.5510204081633" y2="270.9693877551021" 
              stroke="#2980b9" stroke-width="2" /><line x1="575.7142857142858" y1="35.255102040816325" x2="575.7142857142858" y2="18.418367346938776" 
                 stroke="#ff5555" stroke-width="2" /><line x1="592.5510204081633" y1="35.255102040816325" x2="592.5510204081633" y2="270.96938775510205" 
                stroke="#d35400" stroke-width="2" /><line x1="592.5510204081633" y1="270.96938775510205" x2="609.3877551020408" y2="270.96938775510205" 
              stroke="#d35400" stroke-width="2" /><line x1="592.5510204081633" y1="270.96938775510205" x2="592.5510204081633" y2="26.836734693877553" 
              stroke="#d35400" stroke-width="2" /><line x1="609.3877551020408" y1="270.96938775510205" x2="609.3877551020408" y2="262.55102040816325" 
              stroke="#d35400" stroke-width="2" /><line x1="592.5510204081633" y1="35.255102040816325" x2="592.5510204081633" y2="18.418367346938776" 
                 stroke="#ff5555" stroke-width="2" /><line x1="609.3877551020408" y1="35.255102040816325" x2="609.3877551020408" y2="262.55102040816325" 
                stroke="#1abc9c" stroke-width="2" /><line x1="609.3877551020408" y1="262.55102040816325" x2="626.2244897959184" y2="262.55102040816325" 
              stroke="#1abc9c" stroke-width="2" /><line x1="609.3877551020408" y1="262.55102040816325" x2="609.3877551020408" y2="26.836734693877553" 
              stroke="#1abc9c" stroke-width="2" /><line x1="626.2244897959184" y1="262.55102040816325" x2="626.2244897959184" y2="254.1326530612245" 
              stroke="#1abc9c" stroke-width="2" /><line x1="609.3877551020408" y1="35.255102040816325" x2="609.3877551020408" y2="18.418367346938776" 
                 stroke="#ff5555" stroke-width="2" /><line x1="626.2244897959184" y1="35.255102040816325" x2="626.2244897959184" y2="254.1326530612245" 
                stroke="#f39c12" stroke-width="2" /><line x1="626.2244897959184" y1="254.1326530612245" x2="643.0612244897959" y2="254.1326530612245" 
              stroke="#f39c12" stroke-width="2" /><line x1="626.2244897959184" y1="254.1326530612245" x2="626.2244897959184" y2="26.836734693877553" 
              stroke="#f39c12" stroke-width="2" /><line x1="643.0612244897959" y1="254.1326530612245" x2="643.0612244897959" y2="245.71428571428572" 
              stroke="#f39c12" stroke-width="2" /><line x1="626.2244897959184" y1="35.255102040816325" x2="626.2244897959184" y2="18.418367346938776" 
                 stroke="#ff5555" stroke-width="2" /><line x1="643.0612244897959" y1="35.255102040816325" x2="643.0612244897959" y2="245.7142857142857" 
                stroke="#9b59b6" stroke-width="2" /><line x1="643.0612244897959" y1="245.7142857142857" x2="659.8979591836735" y2="245.7142857142857" 
              stroke="#9b59b6" stroke-width="2" /><line x1="643.0612244897959" y1="245.7142857142857" x2="643.0612244897959" y2="26.836734693877553" 
              stroke="#9b59b6" stroke-width="2" /><line x1="659.8979591836735" y1="245.7142857142857" x2="659.8979591836735" y2="237.29591836734693" 
              stroke="#9b59b6" stroke-width="2" /><line x1="643.0612244897959" y1="35.255102040816325" x2="643.0612244897959" y2="18.418367346938776" 
                 stroke="#ff5555" stroke-width="2" /><line x1="659.8979591836735" y1="35.255102040816325" x2="659.8979591836735" y2="237.29591836734693" 
                stroke="#e67e22" stroke-width="2" /><line x1="659.8979591836735" y1="237.29591836734693" x2="676.7346938775511" y2="237.29591836734693" 
              stroke="#e67e22" stroke-width="2" /><line x1="659.8979591836735" y1="237.29591836734693" x2="659.8979591836735" y2="26.836734693877553" 
              stroke="#e67e22" stroke-width="2" /><line x1="676.7346938775511" y1="237.29591836734693" x2="676.7346938775511" y2="228.87755102040816" 
              stroke="#e67e22" stroke-width="2" /><line x1="659.8979591836735" y1="35.255102040816325" x2="659.8979591836735" y2="18.418367346938776" 
                 stroke="#ff5555" stroke-width="2" /><line x1="676.7346938775511" y1="35.255102040816325" x2="676.7346938775511" y2="228.87755102040816" 
                stroke="#2ecc71" stroke-width="2" /><line x1="676.7346938775511" y1="228.87755102040816" x2="693.5714285714287" y2="228.87755102040816" 
              stroke="#2ecc71" stroke-width="2" /><line x1="676.7346938775511" y1="228.87755102040816" x2="676.7346938775511" y2="26.836734693877553" 
              stroke="#2ecc71" stroke-width="2" /><line x1="693.5714285714287" y1="228.87755102040816" x2="693.5714285714287" y2="220.4591836734694" 
              stroke="#2ecc71" stroke-width="2" /><line x1="676.7346938775511" y1="35.255102040816325" x2="676.7346938775511" y2="18.418367346938776" 
                 stroke="#ff5555" stroke-width="2" /><line x1="693.5714285714287" y1="35.255102040816325" x2="693.5714285714287" y2="220.45918367346937" 
                stroke="#3498db" stroke-width="2" /><line x1="693.5714285714287" y1="220.45918367346937" x2="710.4081632653063" y2="220.45918367346937" 
              stroke="#3498db" stroke-width="2" /><line x1="693.5714285714287" y1="220.45918367346937" x2="693.5714285714287" y2="26.836734693877553" 
              stroke="#3498db" stroke-width="2" /><line x1="710.4081632653063" y1="220.45918367346937" x2="710.4081632653063" y2="212.0408163265306" 
              stroke="#3498db" stroke-width="2" /><line x1="693.5714285714287" y1="35.255102040816325" x2="693.5714285714287" y2="18.418367346938776" 
                 stroke="#ff5555" stroke-width="2" /><line x1="710.4081632653063" y1="35.255102040816325" x2="710.4081632653063" y2="212.0408163265306" 
                stroke="#e74c3c" stroke-width="2" /><line x1="710.4081632653063" y1="212.0408163265306" x2="727.2448979591837" y2="212.0408163265306" 
              stroke="#e74c3c" stroke-width="2" /><line x1="710.4081632653063" y1="212.0408163265306" x2="710.4081632653063" y2="26.836734693877553" 
              stroke="#e74c3c" stroke-width="2" /><line x1="727.2448979591837" y1="212.0408163265306" x2="727.2448979591837" y2="203.62244897959184" 
              stroke="#e74c3c" stroke-width="2" /><line x1="710.4081632653063" y1="35.255102040816325" x2="710.4081632653063" y2="18.418367346938776" 
                 stroke="#ff5555" stroke-width="2" /><line x1="727.2448979591837" y1="35.255102040816325" x2="727.2448979591837" y2="203.62244897959184" 
                stroke="#ff6ac1" stroke-width="2" /><line x1="727.2448979591837" y1="203.62244897959184" x2="744.0816326530613" y2="203.62244897959184" 
              stroke="#ff6ac1" stroke-width="2" /><line x1="727.2448979591837" y1="203.62244897959184" x2="727.2448979591837" y2="26.836734693877553" 
              stroke="#ff6ac1" stroke-width="2" /><line x1="744.0816326530613" y1="203.62244897959184" x2="744.0816326530613" y2="195.20408163265307" 
              stroke="#ff6ac1" stroke-width="2" /><line x1="727.2448979591837" y1="35.255102040816325" x2="727.2448979591837" y2="18.418367346938776" 
                 stroke="#ff5555" stroke-width="2" /><line x1="744.0816326530613" y1="35.255102040816325" x2="744.0816326530613" y2="195.20408163265304" 
                stroke="#57c7ff" stroke-width="2" /><line x1="744.0816326530613" y1="195.20408163265304" x2="760.9183673469389" y2="195.20408163265304" 
              stroke="#57c7ff" stroke-width="2" /><line x1="744.0816326530613" y1="195.20408163265304" x2="744.0816326530613" y2="26.836734693877553" 
              stroke="#57c7ff" stroke-width="2" /><line x1="760.9183673469389" y1="195.20408163265304" x2="760.9183673469389" y2="186.78571428571428" 
              stroke="#57c7ff" stroke-width="2" /><line x1="744.0816326530613" y1="35.255102040816325" x2="744.0816326530613" y2="18.418367346938776" 
                 stroke="#ff5555" stroke-width="2" /><line x1="760.9183673469389" y1="35.255102040816325" x2="760.9183673469389" y2="186.78571428571428" 
                stroke="#5af78e" stroke-width="2" /><line x1="760.9183673469389" y1="186.78571428571428" x2="777.7551020408164" y2="186.78571428571428" 
              stroke="#5af78e" stroke-width="2" /><line x1="760.9183673469389" y1="186.78571428571428" x2="760.9183673469389" y2="26.836734693877553" 
              stroke="#5af78e" stroke-width="2" /><line x1="777.7551020408164" y1="186.78571428571428" x2="777.7551020408164" y2="178.3673469387755" 
              stroke="#5af78e" stroke-width="2" /><line x1="760.9183673469389" y1="35.255102040816325" x2="760.9183673469389" y2="18.418367346938776" 
                 stroke="#ff5555" stroke-width="2" /><line x1="777.7551020408164" y1="35.255102040816325" x2="777.7551020408164" y2="178.36734693877548" 
                stroke="#f1fa8c" stroke-width="2" /><line x1="777.7551020408164" y1="178.36734693877548" x2="794.591836734694" y2="178.36734693877548" 
              stroke="#f1fa8c" stroke-width="2" /><line x1="777.7551020408164" y1="178.36734693877548" x2="777.7551020408164" y2="26.836734693877553" 
              stroke="#f1fa8c" stroke-width="2" /><line x1="794.591836734694" y1="178.36734693877548" x2="794.591836734694" y2="169.94897959183672" 
              stroke="#f1fa8c" stroke-width="2" /><line x1="777.7551020408164" y1="35.255102040816325" x2="777.7551020408164" y2="18.418367346938776" 
                 stroke="#ff5555" stroke-width="2" /><line x1="794.591836734694" y1="35.255102040816325" x2="794.591836734694" y2="169.94897959183672" 
                stroke="#ff79c6" stroke-width="2" /><line x1="794.591836734694" y1="169.94897959183672" x2="811.4285714285716" y2="169.94897959183672" 
              stroke="#ff79c6" stroke-width="2" /><line x1="794.591836734694" y1="169.94897959183672" x2="794.591836734694" y2="26.836734693877553" 
              stroke="#ff79c6" stroke-width="2" /><line x1="811.4285714285716" y1="169.94897959183672" x2="811.4285714285716" y2="161.53061224489795" 
              stroke="#ff79c6" stroke-width="2" /><line x1="794.591836734694" y1="35.255102040816325" x2="794.591836734694" y2="18.418367346938776" 
                 stroke="#ff5555" stroke-width="2" /><line x1="811.4285714285716" y1="35.255102040816325" x2="811.4285714285716" y2="161.53061224489792" 
                stroke="#bd93f9" stroke-width="2" /><line x1="811.4285714285716" y1="161.53061224489792" x2="828.265306122449" y2="161.53061224489792" 
              stroke="#bd93f9" stroke-width="2" /><line x1="811.4285714285716" y1="161.53061224489792" x2="811.4285714285716" y2="26.836734693877553" 
              stroke="#bd93f9" stroke-width="2" /><line x1="828.265306122449" y1="161.53061224489792" x2="828.265306122449" y2="153.11224489795916" 
              stroke="#bd93f9" stroke-width="2" /><line x1="811.4285714285716" y1="35.255102040816325" x2="811.4285714285716" y2="18.418367346938776" 
                 stroke="#ff5555" stroke-width="2" /><line x1="828.265306122449" y1="35.255102040816325" x2="828.265306122449" y2="153.11224489795916" 
                stroke="#ffb86c" stroke-width="2" /><line x1="828.265306122449" y1="153.11224489795916" x2="845.1020408163265" y2="153.11224489795916" 
              stroke="#ffb86c" stroke-width="2" /><line x1="828.265306122449" y1="153.11224489795916" x2="828.265306122449" y2="26.836734693877553" 
              stroke="#ffb86c" stroke-width="2" /><line x1="845.1020408163265" y1="153.11224489795916" x2="845.1020408163265" y2="144.6938775510204" 
              stroke="#ffb86c" stroke-width="2" /><line x1="828.265306122449" y1="35.255102040816325" x2="828.265306122449" y2="18.418367346938776" 
                 stroke="#ff5555" stroke-width="2" /><line x1="845.1020408163265" y1="35.255102040816325" x2="845.1020408163265" y2="144.69387755102042" 
                stroke="#50fa7b" stroke-width="2" /><line x1="845.1020408163265" y1="144.69387755102042" x2="861.9387755102041" y2="144.69387755102042" 
              stroke="#50fa7b" stroke-width="2" /><line x1="845.1020408163265" y1="144.69387755102042" x2="845.1020408163265" y2="26.836734693877553" 
              stroke="#50fa7b" stroke-width="2" /><line x1="861.9387755102041" y1="144.69387755102042" x2="861.9387755102041" y2="136.27551020408166" 
              stroke="#50fa7b" stroke-width="2" /><line x1="845.1020408163265" y1="35.255102040816325" x2="845.1020408163265" y2="18.418367346938776" 
                 stroke="#ff5555" stroke-width="2" /><line x1="861.9387755102041" y1="35.255102040816325" x2="861.9387755102041" y2="136.27551020408166" 
                stroke="#8be9fd" stroke-width="2" /><line x1="861.9387755102041" y1="136.27551020408166" x2="878.7755102040817" y2="136.27551020408166" 
              stroke="#8be9fd" stroke-width="2" /><line x1="861.9387755102041" y1="136.27551020408166" x2="861.9387755102041" y2="26.836734693877553" 
              stroke="#8be9fd" stroke-width="2" /><line x1="878.7755102040817" y1="136.27551020408166" x2="878.7755102040817" y2="127.85714285714288" 
              stroke="#8be9fd" stroke-width="2" /><line x1="861.9387755102041" y1="35.255102040816325" x2="861.9387755102041" y2="18.418367346938776" 
                 stroke="#ff5555" stroke-width="2" /><line x1="878.7755102040817" y1="35.255102040816325" x2="878.7755102040817" y2="127.85714285714288" 
                stroke="#ff5555" stroke-width="2" /><line x1="878.7755102040817" y1="127.85714285714288" x2="895.6122448979592" y2="127.85714285714288" 
              stroke="#ff5555" stroke-width="2" /><line x1="878.7755102040817" y1="127.85714285714288" x2="878.7755102040817" y2="26.836734693877553" 
              stroke="#ff5555" stroke-width="2" /><line x1="895.6122448979592" y1="127.85714285714288" x2="895.6122448979592" y2="119.4387755102041" 
              stroke="#ff5555" stroke-width="2" /><line x1="878.7755102040817" y1="35.255102040816325" x2="878.7755102040817" y2="18.418367346938776" 
                 stroke="#ff5555" stroke-width="2" /><line x1="895.6122448979592" y1="35.255102040816325" x2="895.6122448979592" y2="119.43877551020411" 
                stroke="#27ae60" stroke-width="2" /><line x1="895.6122448979592" y1="119.43877551020411" x2="912.4489795918366" y2="119.43877551020411" 
              stroke="#27ae60" stroke-width="2" /><line x1="895.6122448979592" y1="119.43877551020411" x2="895.6122448979592" y2="26.836734693877553" 
              stroke="#27ae60" stroke-width="2" /><line x1="912.4489795918366" y1="119.43877551020411" x2="912.4489795918366" y2="111.02040816326533" 
              stroke="#27ae60" stroke-width="2" /><line x1="895.6122448979592" y1="35.255102040816325" x2="895.6122448979592" y2="18.418367346938776" 
                 stroke="#ff5555" stroke-width="2" /><line x1="912.4489795918366" y1="35.255102040816325" x2="912.4489795918366" y2="111.02040816326533" 
                stroke="#2980b9" stroke-width="2" /><line x1="912.4489795918366" y1="111.02040816326533" x2="929.2857142857142" y2="111.02040816326533" 
              stroke="#2980b9" stroke-width="2" /><line x1="912.4489795918366" y1="111.02040816326533" x2="912.4489795918366" y2="26.836734693877553" 
              stroke="#2980b9" stroke-width="2" /><line x1="929.2857142857142" y1="111.02040816326533" x2="929.2857142857142" y2="102.60204081632655" 
              stroke="#2980b9" stroke-width="2" /><line x1="912.4489795918366" y1="35.255102040816325" x2="912.4489795918366" y2="18.418367346938776" 
                 stroke="#ff5555" stroke-width="2" /><line x1="929.2857142857142" y1="35.255102040816325" x2="929.2857142857142" y2="102.60204081632655" 
                stroke="#d35400" stroke-width="2" /><line x1="929.2857142857142" y1="102.60204081632655" x2="946.1224489795918" y2="102.60204081632655" 
              stroke="#d35400" stroke-width="2" /><line x1="929.2857142857142" y1="102.60204081632655" x2="929.2857142857142" y2="26.836734693877553" 
              stroke="#d35400" stroke-width="2" /><line x1="946.1224489795918" y1="102.60204081632655" x2="946.1224489795918" y2="94.18367346938777" 
              stroke="#d35400" stroke-width="2" /><line x1="929.2857142857142" y1="35.255102040816325" x2="929.2857142857142" y2="18.418367346938776" 
                 stroke="#ff5555" stroke-width="2" /><line x1="946.1224489795918" y1="35.255102040816325" x2="946.1224489795918" y2="94.18367346938777" 
                stroke="#1abc9c" stroke-width="2" /><line x1="946.1224489795918" y1="94.18367346938777" x2="962.9591836734693" y2="94.18367346938777" 
              stroke="#1abc9c" stroke-width="2" /><line x1="946.1224489795918" y1="94.18367346938777" x2="946.1224489795918" y2="26.836734693877553" 
              stroke="#1abc9c" stroke-width="2" /><line x1="962.9591836734693" y1="94.18367346938777" x2="962.9591836734693" y2="85.76530612244899" 
              stroke="#1abc9c" stroke-width="2" /><line x1="946.1224489795918" y1="35.255102040816325" x2="946.1224489795918" y2="18.418367346938776" 
                 stroke="#ff5555" stroke-width="2" /><line x1="962.9591836734693" y1="35.255102040816325" x2="962.9591836734693" y2="85.76530612244899" 
                stroke="#f39c12" stroke-width="2" /><line x1="962.9591836734693" y1="85.76530612244899" x2="979.7959183673468" y2="85.76530612244899" 
              stroke="#f39c12" stroke-width="2" /><line x1="962.9591836734693" y1="85.76530612244899" x2="962.9591836734693" y2="26.836734693877553" 
              stroke="#f39c12" stroke-width="2" /><line x1="979.7959183673468" y1="85.76530612244899" x2="979.7959183673468" y2="77.34693877551022" 
              stroke="#f39c12" stroke-width="2" /><line x1="962.9591836734693" y1="35.255102040816325" x2="962.9591836734693" y2="18.418367346938776" 
                 stroke="#ff5555" stroke-width="2" /><line x1="979.7959183673468" y1="35.255102040816325" x2="979.7959183673468" y2="77.34693877551022" 
                stroke="#9b59b6" stroke-width="2" /><line x1="979.7959183673468" y1="77.34693877551022" x2="996.6326530612243" y2="77.34693877551022" 
              stroke="#9b59b6" stroke-width="2" /><line x1="979.7959183673468" y1="77.34693877551022" x2="979.7959183673468" y2="26.836734693877553" 
              stroke="#9b59b6" stroke-width="2" /><line x1="996.6326530612243" y1="77.34693877551022" x2="996.6326530612243" y2="68.92857142857144" 
              stroke="#9b59b6" stroke-width="2" /><line x1="979.7959183673468" y1="35.255102040816325" x2="979.7959183673468" y2="18.418367346938776" 
                 stroke="#ff5555" stroke-width="2" /><line x1="996.6326530612243" y1="35.255102040816325" x2="996.6326530612243" y2="68.92857142857144" 
                stroke="#e67e22" stroke-width="2" /><line x1="996.6326530612243" y1="68.92857142857144" x2="1013.4693877551019" y2="68.92857142857144" 
              stroke="#e67e22" stroke-width="2" /><line x1="996.6326530612243" y1="68.92857142857144" x2="996.6326530612243" y2="26.836734693877553" 
              stroke="#e67e22" stroke-width="2" /><line x1="1013.4693877551019" y1="68.92857142857144" x2="1013.4693877551019" y2="60.510204081632665" 
              stroke="#e67e22" stroke-width="2" /><line x1="996.6326530612243" y1="35.255102040816325" x2="996.6326530612243" y2="18.418367346938776" 
                 stroke="#ff5555" stroke-width="2" /><line x1="1013.4693877551019" y1="35.255102040816325" x2="1013.4693877551019" y2="60.510204081632665" 
                stroke="#2ecc71" stroke-width="2" /><line x1="1013.4693877551019" y1="60.510204081632665" x2="1030.3061224489793" y2="60.510204081632665" 
              stroke="#2ecc71" stroke-width="2" /><line x1="1013.4693877551019" y1="60.510204081632665" x2="1013.4693877551019" y2="26.836734693877553" 
              stroke="#2ecc71" stroke-width="2" /><line x1="1030.3061224489793" y1="60.510204081632665" x2="1030.3061224489793" y2="52.091836734693885" 
              stroke="#2ecc71" stroke-width="2" /><line x1="1013.4693877551019" y1="35.255102040816325" x2="1013.4693877551019" y2="18.418367346938776" 
                 stroke="#ff5555" stroke-width="2" /><line x1="1030.3061224489793" y1="35.255102040816325" x2="1030.3061224489793" y2="52.091836734693885" 
                stroke="#3498db" stroke-width="2" /><line x1="1030.3061224489793" y1="52.091836734693885" x2="1047.1428571428569" y2="52.091836734693885" 
              stroke="#3498db" stroke-width="2" /><line x1="1030.3061224489793" y1="52.091836734693885" x2="1030.3061224489793" y2="26.836734693877553" 
              stroke="#3498db" stroke-width="2" /><line x1="1047.1428571428569" y1="52.091836734693885" x2="1047.1428571428569" y2="43.673469387755105" 
              stroke="#3498db" stroke-width="2" /><line x1="1030.3061224489793" y1="35.255102040816325" x2="1030.3061224489793" y2="18.418367346938776" 
                 stroke="#ff5555" stroke-width="2" /><line x1="1047.1428571428569" y1="35.255102040816325" x2="1047.1428571428569" y2="43.673469387755105" 
                stroke="#e74c3c" stroke-width="2" /><line x1="1047.1428571428569" y1="43.673469387755105" x2="1063.9795918367345" y2="43.673469387755105" 
              stroke="#e74c3c" stroke-width="2" /><line x1="1047.1428571428569" y1="43.673469387755105" x2="1047.1428571428569" y2="26.836734693877553" 
              stroke="#e74c3c" stroke-width="2" /><line x1="1063.9795918367345" y1="43.673469387755105" x2="1063.9795918367345" y2="35.255102040816325" 
              stroke="#e74c3c" stroke-width="2" /><line x1="1047.1428571428569" y1="35.255102040816325" x2="1047.1428571428569" y2="18.418367346938776" 
                 stroke="#ff5555" stroke-width="2" /><line x1="1063.9795918367345" y1="35.255102040816325" x2="1080.816326530612" y2="35.255102040816325" 
              stroke="#ff6ac1" stroke-width="2" /><line x1="1063.9795918367345" y1="35.255102040816325" x2="1063.9795918367345" y2="26.836734693877553" 
              stroke="#ff6ac1" stroke-width="2" /><line x1="1080.816326530612" y1="35.255102040816325" x2="1080.816326530612" y2="26.836734693877553" 
              stroke="#ff6ac1" stroke-width="2" /><line x1="1063.9795918367345" y1="35.255102040816325" x2="1063.9795918367345" y2="18.418367346938776" 
                 stroke="#ff5555" stroke-width="2" /><line x1="1080.816326530612" y1="35.255102040816325" x2="1080.816326530612" y2="26.836734693877553" 
                 stroke="#ff5555" stroke-width="2" /><text x="23.10204081632653" y="10" font-family="monospace" font-size="12" 
                    fill="#ff5555" font-weight="bold">x</text></g></svg>