<svg xmlns="http://www.w3.org/2000/svg" width="1200" height="800" 
             viewBox="0 0 1200 800" preserveAspectRatio="xMidYMid meet"><rect width="1200" height="800" fill="#282a36" /><g transform="translate(437.81690140845075, 155.00000000000006)"><line x1="59.69014084507041" y1="10" x2="411.6619718309858" y2="10" 
               stroke="#57c7ff" stroke-width="2.4" stroke-linecap="round" /><line x1="59.69014084507041" y1="51.408450704225345" x2="411.6619718309858" y2="51.408450704225345" 
               stroke="#5af78e" stroke-width="2.4" stroke-linecap="round" /><line x1="390.95774647887316" y1="92.81690140845069" x2="390.95774647887316" y2="341.26760563380276" 
              stroke="#f1fa8c" stroke-width="2" /><line x1="59.69014084507041" y1="341.26760563380276" x2="390.95774647887316" y2="341.26760563380276" 
            stroke="#f1fa8c" stroke-width="2" /><line x1="59.69014084507041" y1="341.26760563380276" x2="59.69014084507041" y2="299.8591549295774" 
            stroke="#f1fa8c" stroke-width="2" /><line x1="390.95774647887316" y1="341.26760563380276" x2="390.95774647887316" y2="82.81690140845069" 
            stroke="#f1fa8c" stroke-width="2" /><line x1="308.1408450704225" y1="92.81690140845069" x2="308.1408450704225" y2="299.8591549295774" 
              stroke="#ff79c6" stroke-width="2" /><line x1="59.69014084507041" y1="299.8591549295774" x2="308.1408450704225" y2="299.8591549295774" 
            stroke="#ff79c6" stroke-width="2" /><line x1="59.69014084507041" y1="299.8591549295774" x2="59.69014084507041" y2="258.45070422535207" 
            stroke="#ff79c6" stroke-width="2" /><line x1="308.1408450704225" y1="299.8591549295774" x2="308.1408450704225" y2="82.81690140845069" 
            stroke="#ff79c6" stroke-width="2" /><line x1="59.69014084507041" y1="92.81690140845069" x2="270.87323943661966" y2="92.81690140845069" 
               stroke="#bd93f9" stroke-width="2.4" stroke-linecap="round" /><line x1="59.69014084507041" y1="134.22535211267603" x2="270.87323943661966" y2="134.22535211267603" 
               stroke="#ffb86c" stroke-width="2.4" stroke-linecap="round" /><line x1="59.69014084507041" y1="175.63380281690138" x2="270.87323943661966" y2="175.63380281690138" 
               stroke="#50fa7b" stroke-width="2.4" stroke-linecap="round" /><line x1="59.69014084507041" y1="217.04225352112672" x2="59.69014084507041" y2="258.45070422535207" 
              stroke="#8be9fd" stroke-width="2" /><line x1="59.69014084507041" y1="258.45070422535207" x2="142.5070422535211" y2="258.45070422535207" 
            stroke="#8be9fd" stroke-width="2" /><line x1="59.69014084507041" y1="258.45070422535207" x2="59.69014084507041" y2="207.04225352112672" 
            stroke="#8be9fd" stroke-width="2" /><line x1="142.5070422535211" y1="258.45070422535207" x2="142.5070422535211" y2="217.04225352112672" 
            stroke="#8be9fd" stroke-width="2" /><line x1="59.69014084507041" y1="217.04225352112672" x2="59.69014084507041" y2="92.81690140845069" 
               stroke="#ff5555" stroke-width="2" /><line x1="142.5070422535211" y1="217.04225352112672" x2="225.32394366197178" y2="217.04225352112672" 
            stroke="#ff5555" stroke-width="2" /><line x1="142.5070422535211" y1="217.04225352112672" x2="142.5070422535211" y2="207.04225352112672" 
            stroke="#ff5555" stroke-width="2" /><line x1="225.32394366197178" y1="217.04225352112672" x2="225.32394366197178" y2="207.04225352112672" 
            stroke="#ff5555" stroke-width="2" /><line x1="142.5070422535211" y1="217.04225352112672" x2="142.5070422535211" y2="134.22535211267603" 
               stroke="#ff5555" stroke-width="2" /><line x1="225.32394366197178" y1="217.04225352112672" x2="225.32394366197178" y2="175.63380281690138" 
               stroke="#ff5555" stroke-width="2" /><line x1="308.1408450704225" y1="92.81690140845069" x2="308.1408450704225" y2="10" 
               stroke="#ff5555" stroke-width="2" /><line x1="390.95774647887316" y1="92.81690140845069" x2="390.95774647887316" y2="51.408450704225345" 
               stroke="#ff5555" stroke-width="2" /></g></svg>