<svg xmlns="http://www.w3.org/2000/svg" width="1200" height="800" 
             viewBox="0 0 1200 800" preserveAspectRatio="xMidYMid meet"><rect width="1200" height="800" fill="#282a36" /><g transform="translate(20, 20)"><line x1="20.259067357512954" y1="10" x2="935.8808290155441" y2="10" 
               stroke="#000000" stroke-width="2.4" stroke-linecap="round" /><line x1="20.259067357512954" y1="146.78756476683938" x2="20.259067357512954" y2="309.22279792746116" 
              stroke="#000000" stroke-width="2" stroke-linecap="round" /><line x1="20.259067357512954" y1="309.22279792746116" x2="533.2124352331607" y2="309.22279792746116" 
            stroke="#000000" stroke-width="2" stroke-linecap="round" /><line x1="20.259067357512954" y1="309.22279792746116" x2="20.259067357512954" y2="138.23834196891193" 
            stroke="#000000" stroke-width="2" stroke-linecap="round" /><line x1="533.2124352331607" y1="309.22279792746116" x2="533.2124352331607" y2="300.6735751295337" 
            stroke="#000000" stroke-width="2" stroke-linecap="round" /><line x1="20.259067357512954" y1="78.39378238341968" x2="20.259067357512954" y2="138.2383419689119" 
              stroke="#000000" stroke-width="2" stroke-linecap="round" /><line x1="20.259067357512954" y1="138.2383419689119" x2="105.75129533678756" y2="138.2383419689119" 
            stroke="#000000" stroke-width="2" stroke-linecap="round" /><line x1="20.259067357512954" y1="138.2383419689119" x2="20.259067357512954" y2="69.84455958549222" 
            stroke="#000000" stroke-width="2" stroke-linecap="round" /><line x1="105.75129533678756" y1="138.2383419689119" x2="105.75129533678756" y2="129.68911917098444" 
            stroke="#000000" stroke-width="2" stroke-linecap="round" /><line x1="20.259067357512954" y1="18.549222797927463" x2="92.92746113989637" y2="18.549222797927463" 
               stroke="#000000" stroke-width="2.4" stroke-linecap="round" /><line x1="20.259067357512954" y1="27.098445595854926" x2="92.92746113989637" y2="27.098445595854926" 
               stroke="#000000" stroke-width="2.4" stroke-linecap="round" /><line x1="20.259067357512954" y1="35.64766839378239" x2="92.92746113989637" y2="35.64766839378239" 
               stroke="#000000" stroke-width="2.4" stroke-linecap="round" /><line x1="20.259067357512954" y1="44.19689119170985" x2="92.92746113989637" y2="44.19689119170985" 
               stroke="#000000" stroke-width="2.4" stroke-linecap="round" /><line x1="20.259067357512954" y1="61.29533678756478" x2="20.259067357512954" y2="69.84455958549223" 
              stroke="#000000" stroke-width="2" stroke-linecap="round" /><line x1="20.259067357512954" y1="69.84455958549223" x2="54.4559585492228" y2="69.84455958549223" 
            stroke="#000000" stroke-width="2" stroke-linecap="round" /><line x1="20.259067357512954" y1="69.84455958549223" x2="20.259067357512954" y2="52.746113989637315" 
            stroke="#000000" stroke-width="2" stroke-linecap="round" /><line x1="54.4559585492228" y1="69.84455958549223" x2="54.4559585492228" y2="61.29533678756478" 
            stroke="#000000" stroke-width="2" stroke-linecap="round" /><line x1="20.259067357512954" y1="52.746113989637315" x2="37.35751295336787" y2="52.746113989637315" 
            stroke="#000000" stroke-width="2" stroke-linecap="round" /><line x1="20.259067357512954" y1="52.746113989637315" x2="20.259067357512954" y2="44.19689119170985" 
            stroke="#000000" stroke-width="2" stroke-linecap="round" /><line x1="37.35751295336787" y1="52.746113989637315" x2="37.35751295336787" y2="44.19689119170985" 
            stroke="#000000" stroke-width="2" stroke-linecap="round" /><line x1="20.259067357512954" y1="52.746113989637315" x2="20.259067357512954" y2="18.549222797927463" 
           stroke="#000000" stroke-width="2" stroke-linecap="round" /><line x1="37.35751295336787" y1="52.746113989637315" x2="37.35751295336787" y2="35.64766839378239" 
           stroke="#000000" stroke-width="2" stroke-linecap="round" /><line x1="88.65284974093265" y1="52.746113989637315" x2="88.65284974093265" y2="61.29533678756478" 
              stroke="#000000" stroke-width="2" stroke-linecap="round" /><line x1="54.4559585492228" y1="61.29533678756478" x2="88.65284974093265" y2="61.29533678756478" 
            stroke="#000000" stroke-width="2" stroke-linecap="round" /><line x1="54.4559585492228" y1="61.29533678756478" x2="54.4559585492228" y2="52.746113989637315" 
            stroke="#000000" stroke-width="2" stroke-linecap="round" /><line x1="88.65284974093265" y1="61.29533678756478" x2="88.65284974093265" y2="44.19689119170985" 
            stroke="#000000" stroke-width="2" stroke-linecap="round" /><line x1="54.4559585492228" y1="52.746113989637315" x2="71.55440414507771" y2="52.746113989637315" 
            stroke="#000000" stroke-width="2" stroke-linecap="round" /><line x1="54.4559585492228" y1="52.746113989637315" x2="54.4559585492228" y2="44.19689119170985" 
            stroke="#000000" stroke-width="2" stroke-linecap="round" /><line x1="71.55440414507771" y1="52.746113989637315" x2="71.55440414507771" y2="44.19689119170985" 
            stroke="#000000" stroke-width="2" stroke-linecap="round" /><line x1="54.4559585492228" y1="52.746113989637315" x2="54.4559585492228" y2="27.098445595854926" 
           stroke="#000000" stroke-width="2" stroke-linecap="round" /><line x1="71.55440414507771" y1="52.746113989637315" x2="71.55440414507771" y2="35.64766839378239" 
           stroke="#000000" stroke-width="2" stroke-linecap="round" /><line x1="88.65284974093265" y1="52.746113989637315" x2="88.65284974093265" y2="44.19689119170985" 
           stroke="#000000" stroke-width="2" stroke-linecap="round" /><line x1="430.6217616580311" y1="78.39378238341968" x2="430.6217616580311" y2="129.68911917098447" 
              stroke="#000000" stroke-width="2" stroke-linecap="round" /><line x1="105.75129533678756" y1="129.68911917098447" x2="430.6217616580311" y2="129.68911917098447" 
            stroke="#000000" stroke-width="2" stroke-linecap="round" /><line x1="105.75129533678756" y1="129.68911917098447" x2="105.75129533678756" y2="121.139896373057" 
            stroke="#000000" stroke-width="2" stroke-linecap="round" /><line x1="430.6217616580311" y1="129.68911917098447" x2="430.6217616580311" y2="69.84455958549222" 
            stroke="#000000" stroke-width="2" stroke-linecap="round" /><line x1="105.75129533678756" y1="95.4922279792746" x2="105.75129533678756" y2="121.13989637305698" 
              stroke="#000000" stroke-width="2" stroke-linecap="round" /><line x1="105.75129533678756" y1="121.13989637305698" x2="191.24352331606218" y2="121.13989637305698" 
            stroke="#000000" stroke-width="2" stroke-linecap="round" /><line x1="105.75129533678756" y1="121.13989637305698" x2="105.75129533678756" y2="86.94300518134715" 
            stroke="#000000" stroke-width="2" stroke-linecap="round" /><line x1="191.24352331606218" y1="121.13989637305698" x2="191.24352331606218" y2="112.59067357512953" 
            stroke="#000000" stroke-width="2" stroke-linecap="round" /><line x1="105.75129533678756" y1="18.549222797927463" x2="178.41968911917098" y2="18.549222797927463" 
               stroke="#000000" stroke-width="2.4" stroke-linecap="round" /><line x1="105.75129533678756" y1="27.098445595854926" x2="178.41968911917098" y2="27.098445595854926" 
               stroke="#000000" stroke-width="2.4" stroke-linecap="round" /><line x1="105.75129533678756" y1="35.64766839378239" x2="178.41968911917098" y2="35.64766839378239" 
               stroke="#000000" stroke-width="2.4" stroke-linecap="round" /><line x1="105.75129533678756" y1="44.19689119170985" x2="178.41968911917098" y2="44.19689119170985" 
               stroke="#000000" stroke-width="2.4" stroke-linecap="round" /><line x1="174.14507772020727" y1="52.746113989637315" x2="174.14507772020727" y2="86.94300518134715" 
              stroke="#000000" stroke-width="2" stroke-linecap="round" /><line x1="105.75129533678756" y1="86.94300518134715" x2="174.14507772020727" y2="86.94300518134715" 
            stroke="#000000" stroke-width="2" stroke-linecap="round" /><line x1="105.75129533678756" y1="86.94300518134715" x2="105.75129533678756" y2="78.39378238341969" 
            stroke="#000000" stroke-width="2" stroke-linecap="round" /><line x1="174.14507772020727" y1="86.94300518134715" x2="174.14507772020727" y2="44.19689119170985" 
            stroke="#000000" stroke-width="2" stroke-linecap="round" /><line x1="105.75129533678756" y1="52.746113989637315" x2="105.75129533678756" y2="78.39378238341969" 
              stroke="#000000" stroke-width="2" stroke-linecap="round" /><line x1="105.75129533678756" y1="78.39378238341969" x2="122.84974093264249" y2="78.39378238341969" 
            stroke="#000000" stroke-width="2" stroke-linecap="round" /><line x1="105.75129533678756" y1="78.39378238341969" x2="105.75129533678756" y2="44.19689119170985" 
            stroke="#000000" stroke-width="2" stroke-linecap="round" /><line x1="122.84974093264249" y1="78.39378238341969" x2="122.84974093264249" y2="69.84455958549223" 
            stroke="#000000" stroke-width="2" stroke-linecap="round" /><line x1="105.75129533678756" y1="52.746113989637315" x2="105.75129533678756" y2="18.549222797927463" 
           stroke="#000000" stroke-width="2" stroke-linecap="round" /><line x1="122.84974093264249" y1="52.746113989637315" x2="166.45077720207254" y2="52.746113989637315" 
               stroke="#000000" stroke-width="2.4" stroke-linecap="round" /><line x1="122.84974093264249" y1="61.29533678756478" x2="122.84974093264249" y2="69.84455958549223" 
              stroke="#000000" stroke-width="2" stroke-linecap="round" /><line x1="122.84974093264249" y1="69.84455958549223" x2="139.94818652849742" y2="69.84455958549223" 
            stroke="#000000" stroke-width="2" stroke-linecap="round" /><line x1="122.84974093264249" y1="69.84455958549223" x2="122.84974093264249" y2="52.746113989637315" 
            stroke="#000000" stroke-width="2" stroke-linecap="round" /><line x1="139.94818652849742" y1="69.84455958549223" x2="139.94818652849742" y2="61.29533678756478" 
            stroke="#000000" stroke-width="2" stroke-linecap="round" /><line x1="122.84974093264249" y1="61.29533678756478" x2="122.84974093264249" y2="52.746113989637315" 
           stroke="#000000" stroke-width="2" stroke-linecap="round" /><line x1="139.94818652849742" y1="61.29533678756478" x2="157.04663212435236" y2="61.29533678756478" 
            stroke="#000000" stroke-width="2" stroke-linecap="round" /><line x1="139.94818652849742" y1="61.29533678756478" x2="139.94818652849742" y2="52.746113989637315" 
            stroke="#000000" stroke-width="2" stroke-linecap="round" /><line x1="157.04663212435236" y1="61.29533678756478" x2="157.04663212435236" y2="52.746113989637315" 
            stroke="#000000" stroke-width="2" stroke-linecap="round" /><line x1="139.94818652849742" y1="61.29533678756478" x2="139.94818652849742" y2="27.098445595854926" 
           stroke="#000000" stroke-width="2" stroke-linecap="round" /><line x1="157.04663212435236" y1="61.29533678756478" x2="157.04663212435236" y2="35.64766839378239" 
           stroke="#000000" stroke-width="2" stroke-linecap="round" /><line x1="174.14507772020727" y1="52.746113989637315" x2="174.14507772020727" y2="44.19689119170985" 
           stroke="#000000" stroke-width="2" stroke-linecap="round" /><line x1="191.24352331606218" y1="69.84455958549222" x2="191.24352331606218" y2="112.59067357512953" 
              stroke="#000000" stroke-width="2" stroke-linecap="round" /><line x1="191.24352331606218" y1="112.59067357512953" x2="259.6373056994819" y2="112.59067357512953" 
            stroke="#000000" stroke-width="2" stroke-linecap="round" /><line x1="191.24352331606218" y1="112.59067357512953" x2="191.24352331606218" y2="61.295336787564764" 
            stroke="#000000" stroke-width="2" stroke-linecap="round" /><line x1="259.6373056994819" y1="112.59067357512953" x2="259.6373056994819" y2="104.04145077720207" 
            stroke="#000000" stroke-width="2" stroke-linecap="round" /><line x1="242.53886010362694" y1="18.549222797927463" x2="242.53886010362694" y2="61.29533678756477" 
              stroke="#000000" stroke-width="2" stroke-linecap="round" /><line x1="191.24352331606218" y1="61.29533678756477" x2="242.53886010362694" y2="61.29533678756477" 
            stroke="#000000" stroke-width="2" stroke-linecap="round" /><line x1="191.24352331606218" y1="61.29533678756477" x2="191.24352331606218" y2="52.74611398963731" 
            stroke="#000000" stroke-width="2" stroke-linecap="round" /><line x1="242.53886010362694" y1="61.29533678756477" x2="242.53886010362694" y2="10" 
            stroke="#000000" stroke-width="2" stroke-linecap="round" /><line x1="191.24352331606218" y1="18.549222797927463" x2="234.84455958549222" y2="18.549222797927463" 
               stroke="#000000" stroke-width="2.4" stroke-linecap="round" /><line x1="191.24352331606218" y1="27.098445595854926" x2="234.84455958549222" y2="27.098445595854926" 
               stroke="#000000" stroke-width="2.4" stroke-linecap="round" /><line x1="191.24352331606218" y1="35.64766839378239" x2="234.84455958549222" y2="35.64766839378239" 
               stroke="#000000" stroke-width="2.4" stroke-linecap="round" /><line x1="191.24352331606218" y1="44.19689119170985" x2="191.24352331606218" y2="52.746113989637315" 
              stroke="#000000" stroke-width="2" stroke-linecap="round" /><line x1="191.24352331606218" y1="52.746113989637315" x2="208.3419689119171" y2="52.746113989637315" 
            stroke="#000000" stroke-width="2" stroke-linecap="round" /><line x1="191.24352331606218" y1="52.746113989637315" x2="191.24352331606218" y2="35.64766839378239" 
            stroke="#000000" stroke-width="2" stroke-linecap="round" /><line x1="208.3419689119171" y1="52.746113989637315" x2="208.3419689119171" y2="44.19689119170985" 
            stroke="#000000" stroke-width="2" stroke-linecap="round" /><line x1="191.24352331606218" y1="44.19689119170985" x2="191.24352331606218" y2="18.549222797927463" 
           stroke="#000000" stroke-width="2" stroke-linecap="round" /><line x1="208.3419689119171" y1="44.19689119170985" x2="225.44041450777203" y2="44.19689119170985" 
            stroke="#000000" stroke-width="2" stroke-linecap="round" /><line x1="208.3419689119171" y1="44.19689119170985" x2="208.3419689119171" y2="35.64766839378239" 
            stroke="#000000" stroke-width="2" stroke-linecap="round" /><line x1="225.44041450777203" y1="44.19689119170985" x2="225.44041450777203" y2="35.64766839378239" 
            stroke="#000000" stroke-width="2" stroke-linecap="round" /><line x1="208.3419689119171" y1="44.19689119170985" x2="208.3419689119171" y2="27.098445595854926" 
           stroke="#000000" stroke-width="2" stroke-linecap="round" /><line x1="225.44041450777203" y1="44.19689119170985" x2="225.44041450777203" y2="35.64766839378239" 
           stroke="#000000" stroke-width="2" stroke-linecap="round" /><line x1="242.53886010362694" y1="18.549222797927463" x2="242.53886010362694" y2="10" 
           stroke="#000000" stroke-width="2" stroke-linecap="round" /><line x1="259.6373056994819" y1="18.549222797927463" x2="404.9740932642487" y2="18.549222797927463" 
               stroke="#000000" stroke-width="2.4" stroke-linecap="round" /><line x1="259.6373056994819" y1="27.098445595854926" x2="404.9740932642487" y2="27.098445595854926" 
               stroke="#000000" stroke-width="2.4" stroke-linecap="round" /><line x1="259.6373056994819" y1="35.64766839378239" x2="259.6373056994819" y2="104.04145077720206" 
              stroke="#000000" stroke-width="2" stroke-linecap="round" /><line x1="259.6373056994819" y1="104.04145077720206" x2="276.7357512953368" y2="104.04145077720206" 
            stroke="#000000" stroke-width="2" stroke-linecap="round" /><line x1="259.6373056994819" y1="104.04145077720206" x2="259.6373056994819" y2="27.098445595854926" 
            stroke="#000000" stroke-width="2" stroke-linecap="round" /><line x1="276.7357512953368" y1="104.04145077720206" x2="276.7357512953368" y2="95.4922279792746" 
            stroke="#000000" stroke-width="2" stroke-linecap="round" /><line x1="259.6373056994819" y1="35.64766839378239" x2="259.6373056994819" y2="18.549222797927463" 
           stroke="#000000" stroke-width="2" stroke-linecap="round" /><line x1="276.7357512953368" y1="35.64766839378239" x2="276.7357512953368" y2="95.49222797927459" 
              stroke="#000000" stroke-width="2" stroke-linecap="round" /><line x1="276.7357512953368" y1="95.49222797927459" x2="293.8341968911917" y2="95.49222797927459" 
            stroke="#000000" stroke-width="2" stroke-linecap="round" /><line x1="276.7357512953368" y1="95.49222797927459" x2="276.7357512953368" y2="27.098445595854926" 
            stroke="#000000" stroke-width="2" stroke-linecap="round" /><line x1="293.8341968911917" y1="95.49222797927459" x2="293.8341968911917" y2="86.94300518134713" 
            stroke="#000000" stroke-width="2" stroke-linecap="round" /><line x1="276.7357512953368" y1="35.64766839378239" x2="276.7357512953368" y2="18.549222797927463" 
           stroke="#000000" stroke-width="2" stroke-linecap="round" /><line x1="293.8341968911917" y1="35.64766839378239" x2="293.8341968911917" y2="86.94300518134713" 
              stroke="#000000" stroke-width="2" stroke-linecap="round" /><line x1="293.8341968911917" y1="86.94300518134713" x2="310.9326424870467" y2="86.94300518134713" 
            stroke="#000000" stroke-width="2" stroke-linecap="round" /><line x1="293.8341968911917" y1="86.94300518134713" x2="293.8341968911917" y2="27.098445595854926" 
            stroke="#000000" stroke-width="2" stroke-linecap="round" /><line x1="310.9326424870467" y1="86.94300518134713" x2="310.9326424870467" y2="78.39378238341968" 
            stroke="#000000" stroke-width="2" stroke-linecap="round" /><line x1="293.8341968911917" y1="35.64766839378239" x2="293.8341968911917" y2="18.549222797927463" 
           stroke="#000000" stroke-width="2" stroke-linecap="round" /><line x1="310.9326424870467" y1="35.64766839378239" x2="310.9326424870467" y2="78.39378238341969" 
              stroke="#000000" stroke-width="2" stroke-linecap="round" /><line x1="310.9326424870467" y1="78.39378238341969" x2="328.0310880829016" y2="78.39378238341969" 
            stroke="#000000" stroke-width="2" stroke-linecap="round" /><line x1="310.9326424870467" y1="78.39378238341969" x2="310.9326424870467" y2="27.098445595854926" 
            stroke="#000000" stroke-width="2" stroke-linecap="round" /><line x1="328.0310880829016" y1="78.39378238341969" x2="328.0310880829016" y2="69.84455958549223" 
            stroke="#000000" stroke-width="2" stroke-linecap="round" /><line x1="310.9326424870467" y1="35.64766839378239" x2="310.9326424870467" y2="18.549222797927463" 
           stroke="#000000" stroke-width="2" stroke-linecap="round" /><line x1="328.0310880829016" y1="35.64766839378239" x2="328.0310880829016" y2="69.84455958549223" 
              stroke="#000000" stroke-width="2" stroke-linecap="round" /><line x1="328.0310880829016" y1="69.84455958549223" x2="345.1295336787565" y2="69.84455958549223" 
            stroke="#000000" stroke-width="2" stroke-linecap="round" /><line x1="328.0310880829016" y1="69.84455958549223" x2="328.0310880829016" y2="27.098445595854926" 
            stroke="#000000" stroke-width="2" stroke-linecap="round" /><line x1="345.1295336787565" y1="69.84455958549223" x2="345.1295336787565" y2="61.29533678756477" 
            stroke="#000000" stroke-width="2" stroke-linecap="round" /><line x1="328.0310880829016" y1="35.64766839378239" x2="328.0310880829016" y2="18.549222797927463" 
           stroke="#000000" stroke-width="2" stroke-linecap="round" /><line x1="345.1295336787565" y1="35.64766839378239" x2="345.1295336787565" y2="61.29533678756477" 
              stroke="#000000" stroke-width="2" stroke-linecap="round" /><line x1="345.1295336787565" y1="61.29533678756477" x2="362.2279792746114" y2="61.29533678756477" 
            stroke="#000000" stroke-width="2" stroke-linecap="round" /><line x1="345.1295336787565" y1="61.29533678756477" x2="345.1295336787565" y2="27.098445595854926" 
            stroke="#000000" stroke-width="2" stroke-linecap="round" /><line x1="362.2279792746114" y1="61.29533678756477" x2="362.2279792746114" y2="52.74611398963731" 
            stroke="#000000" stroke-width="2" stroke-linecap="round" /><line x1="345.1295336787565" y1="35.64766839378239" x2="345.1295336787565" y2="18.549222797927463" 
           stroke="#000000" stroke-width="2" stroke-linecap="round" /><line x1="362.2279792746114" y1="35.64766839378239" x2="362.2279792746114" y2="52.74611398963731" 
              stroke="#000000" stroke-width="2" stroke-linecap="round" /><line x1="362.2279792746114" y1="52.74611398963731" x2="379.3264248704663" y2="52.74611398963731" 
            stroke="#000000" stroke-width="2" stroke-linecap="round" /><line x1="362.2279792746114" y1="52.74611398963731" x2="362.2279792746114" y2="27.098445595854926" 
            stroke="#000000" stroke-width="2" stroke-linecap="round" /><line x1="379.3264248704663" y1="52.74611398963731" x2="379.3264248704663" y2="44.19689119170985" 
            stroke="#000000" stroke-width="2" stroke-linecap="round" /><line x1="362.2279792746114" y1="35.64766839378239" x2="362.2279792746114" y2="18.549222797927463" 
           stroke="#000000" stroke-width="2" stroke-linecap="round" /><line x1="379.3264248704663" y1="35.64766839378239" x2="379.3264248704663" y2="44.19689119170985" 
              stroke="#000000" stroke-width="2" stroke-linecap="round" /><line x1="379.3264248704663" y1="44.19689119170985" x2="396.42487046632124" y2="44.19689119170985" 
            stroke="#000000" stroke-width="2" stroke-linecap="round" /><line x1="379.3264248704663" y1="44.19689119170985" x2="379.3264248704663" y2="27.098445595854926" 
            stroke="#000000" stroke-width="2" stroke-linecap="round" /><line x1="396.42487046632124" y1="44.19689119170985" x2="396.42487046632124" y2="35.64766839378239" 
            stroke="#000000" stroke-width="2" stroke-linecap="round" /><line x1="379.3264248704663" y1="35.64766839378239" x2="379.3264248704663" y2="18.549222797927463" 
           stroke="#000000" stroke-width="2" stroke-linecap="round" /><line x1="396.42487046632124" y1="35.64766839378239" x2="413.52331606217615" y2="35.64766839378239" 
            stroke="#000000" stroke-width="2" stroke-linecap="round" /><line x1="396.42487046632124" y1="35.64766839378239" x2="396.42487046632124" y2="27.098445595854926" 
            stroke="#000000" stroke-width="2" stroke-linecap="round" /><line x1="413.52331606217615" y1="35.64766839378239" x2="413.52331606217615" y2="27.098445595854926" 
            stroke="#000000" stroke-width="2" stroke-linecap="round" /><line x1="396.42487046632124" y1="35.64766839378239" x2="396.42487046632124" y2="18.549222797927463" 
           stroke="#000000" stroke-width="2" stroke-linecap="round" /><line x1="413.52331606217615" y1="35.64766839378239" x2="413.52331606217615" y2="27.098445595854926" 
           stroke="#000000" stroke-width="2" stroke-linecap="round" /><line x1="430.6217616580311" y1="18.549222797927463" x2="517.8238341968912" y2="18.549222797927463" 
               stroke="#000000" stroke-width="2.4" stroke-linecap="round" /><line x1="430.6217616580311" y1="27.098445595854926" x2="517.8238341968912" y2="27.098445595854926" 
               stroke="#000000" stroke-width="2.4" stroke-linecap="round" /><line x1="430.6217616580311" y1="35.64766839378239" x2="430.6217616580311" y2="69.84455958549223" 
              stroke="#000000" stroke-width="2" stroke-linecap="round" /><line x1="430.6217616580311" y1="69.84455958549223" x2="447.72020725388603" y2="69.84455958549223" 
            stroke="#000000" stroke-width="2" stroke-linecap="round" /><line x1="430.6217616580311" y1="69.84455958549223" x2="430.6217616580311" y2="27.098445595854926" 
            stroke="#000000" stroke-width="2" stroke-linecap="round" /><line x1="447.72020725388603" y1="69.84455958549223" x2="447.72020725388603" y2="61.29533678756477" 
            stroke="#000000" stroke-width="2" stroke-linecap="round" /><line x1="430.6217616580311" y1="35.64766839378239" x2="430.6217616580311" y2="18.549222797927463" 
           stroke="#000000" stroke-width="2" stroke-linecap="round" /><line x1="447.72020725388603" y1="35.64766839378239" x2="447.72020725388603" y2="61.29533678756477" 
              stroke="#000000" stroke-width="2" stroke-linecap="round" /><line x1="447.72020725388603" y1="61.29533678756477" x2="464.81865284974094" y2="61.29533678756477" 
            stroke="#000000" stroke-width="2" stroke-linecap="round" /><line x1="447.72020725388603" y1="61.29533678756477" x2="447.72020725388603" y2="27.098445595854926" 
            stroke="#000000" stroke-width="2" stroke-linecap="round" /><line x1="464.81865284974094" y1="61.29533678756477" x2="464.81865284974094" y2="52.74611398963731" 
            stroke="#000000" stroke-width="2" stroke-linecap="round" /><line x1="447.72020725388603" y1="35.64766839378239" x2="447.72020725388603" y2="18.549222797927463" 
           stroke="#000000" stroke-width="2" stroke-linecap="round" /><line x1="464.81865284974094" y1="35.64766839378239" x2="464.81865284974094" y2="52.74611398963731" 
              stroke="#000000" stroke-width="2" stroke-linecap="round" /><line x1="464.81865284974094" y1="52.74611398963731" x2="481.9170984455959" y2="52.74611398963731" 
            stroke="#000000" stroke-width="2" stroke-linecap="round" /><line x1="464.81865284974094" y1="52.74611398963731" x2="464.81865284974094" y2="27.098445595854926" 
            stroke="#000000" stroke-width="2" stroke-linecap="round" /><line x1="481.9170984455959" y1="52.74611398963731" x2="481.9170984455959" y2="44.19689119170985" 
            stroke="#000000" stroke-width="2" stroke-linecap="round" /><line x1="464.81865284974094" y1="35.64766839378239" x2="464.81865284974094" y2="18.549222797927463" 
           stroke="#000000" stroke-width="2" stroke-linecap="round" /><line x1="481.9170984455959" y1="35.64766839378239" x2="481.9170984455959" y2="44.19689119170985" 
              stroke="#000000" stroke-width="2" stroke-linecap="round" /><line x1="481.9170984455959" y1="44.19689119170985" x2="499.0155440414508" y2="44.19689119170985" 
            stroke="#000000" stroke-width="2" stroke-linecap="round" /><line x1="481.9170984455959" y1="44.19689119170985" x2="481.9170984455959" y2="27.098445595854926" 
            stroke="#000000" stroke-width="2" stroke-linecap="round" /><line x1="499.0155440414508" y1="44.19689119170985" x2="499.0155440414508" y2="35.64766839378239" 
            stroke="#000000" stroke-width="2" stroke-linecap="round" /><line x1="481.9170984455959" y1="35.64766839378239" x2="481.9170984455959" y2="18.549222797927463" 
           stroke="#000000" stroke-width="2" stroke-linecap="round" /><line x1="499.0155440414508" y1="35.64766839378239" x2="516.1139896373057" y2="35.64766839378239" 
            stroke="#000000" stroke-width="2" stroke-linecap="round" /><line x1="499.0155440414508" y1="35.64766839378239" x2="499.0155440414508" y2="27.098445595854926" 
            stroke="#000000" stroke-width="2" stroke-linecap="round" /><line x1="516.1139896373057" y1="35.64766839378239" x2="516.1139896373057" y2="27.098445595854926" 
            stroke="#000000" stroke-width="2" stroke-linecap="round" /><line x1="499.0155440414508" y1="35.64766839378239" x2="499.0155440414508" y2="18.549222797927463" 
           stroke="#000000" stroke-width="2" stroke-linecap="round" /><line x1="516.1139896373057" y1="35.64766839378239" x2="516.1139896373057" y2="27.098445595854926" 
           stroke="#000000" stroke-width="2" stroke-linecap="round" /><line x1="533.2124352331607" y1="18.549222797927463" x2="1012.8238341968913" y2="18.549222797927463" 
               stroke="#000000" stroke-width="2.4" stroke-linecap="round" /><line x1="533.2124352331607" y1="27.098445595854926" x2="1012.8238341968913" y2="27.098445595854926" 
               stroke="#000000" stroke-width="2.4" stroke-linecap="round" /><line x1="533.2124352331607" y1="35.64766839378239" x2="533.2124352331607" y2="300.67357512953373" 
              stroke="#000000" stroke-width="2" stroke-linecap="round" /><line x1="533.2124352331607" y1="300.67357512953373" x2="550.3108808290156" y2="300.67357512953373" 
            stroke="#000000" stroke-width="2" stroke-linecap="round" /><line x1="533.2124352331607" y1="300.67357512953373" x2="533.2124352331607" y2="27.098445595854926" 
            stroke="#000000" stroke-width="2" stroke-linecap="round" /><line x1="550.3108808290156" y1="300.67357512953373" x2="550.3108808290156" y2="292.12435233160625" 
            stroke="#000000" stroke-width="2" stroke-linecap="round" /><line x1="533.2124352331607" y1="35.64766839378239" x2="533.2124352331607" y2="18.549222797927463" 
           stroke="#000000" stroke-width="2" stroke-linecap="round" /><line x1="550.3108808290156" y1="35.64766839378239" x2="550.3108808290156" y2="292.1243523316063" 
              stroke="#000000" stroke-width="2" stroke-linecap="round" /><line x1="550.3108808290156" y1="292.1243523316063" x2="567.4093264248705" y2="292.1243523316063" 
            stroke="#000000" stroke-width="2" stroke-linecap="round" /><line x1="550.3108808290156" y1="292.1243523316063" x2="550.3108808290156" y2="27.098445595854926" 
            stroke="#000000" stroke-width="2" stroke-linecap="round" /><line x1="567.4093264248705" y1="292.1243523316063" x2="567.4093264248705" y2="283.5751295336788" 
            stroke="#000000" stroke-width="2" stroke-linecap="round" /><line x1="550.3108808290156" y1="35.64766839378239" x2="550.3108808290156" y2="18.549222797927463" 
           stroke="#000000" stroke-width="2" stroke-linecap="round" /><line x1="567.4093264248705" y1="35.64766839378239" x2="567.4093264248705" y2="283.5751295336788" 
              stroke="#000000" stroke-width="2" stroke-linecap="round" /><line x1="567.4093264248705" y1="283.5751295336788" x2="584.5077720207254" y2="283.5751295336788" 
            stroke="#000000" stroke-width="2" stroke-linecap="round" /><line x1="567.4093264248705" y1="283.5751295336788" x2="567.4093264248705" y2="27.098445595854926" 
            stroke="#000000" stroke-width="2" stroke-linecap="round" /><line x1="584.5077720207254" y1="283.5751295336788" x2="584.5077720207254" y2="275.02590673575133" 
            stroke="#000000" stroke-width="2" stroke-linecap="round" /><line x1="567.4093264248705" y1="35.64766839378239" x2="567.4093264248705" y2="18.549222797927463" 
           stroke="#000000" stroke-width="2" stroke-linecap="round" /><line x1="584.5077720207254" y1="35.64766839378239" x2="584.5077720207254" y2="275.02590673575133" 
              stroke="#000000" stroke-width="2" stroke-linecap="round" /><line x1="584.5077720207254" y1="275.02590673575133" x2="601.6062176165804" y2="275.02590673575133" 
            stroke="#000000" stroke-width="2" stroke-linecap="round" /><line x1="584.5077720207254" y1="275.02590673575133" x2="584.5077720207254" y2="27.098445595854926" 
            stroke="#000000" stroke-width="2" stroke-linecap="round" /><line x1="601.6062176165804" y1="275.02590673575133" x2="601.6062176165804" y2="266.47668393782385" 
            stroke="#000000" stroke-width="2" stroke-linecap="round" /><line x1="584.5077720207254" y1="35.64766839378239" x2="584.5077720207254" y2="18.549222797927463" 
           stroke="#000000" stroke-width="2" stroke-linecap="round" /><line x1="601.6062176165804" y1="35.64766839378239" x2="601.6062176165804" y2="266.47668393782385" 
              stroke="#000000" stroke-width="2" stroke-linecap="round" /><line x1="601.6062176165804" y1="266.47668393782385" x2="618.7046632124353" y2="266.47668393782385" 
            stroke="#000000" stroke-width="2" stroke-linecap="round" /><line x1="601.6062176165804" y1="266.47668393782385" x2="601.6062176165804" y2="27.098445595854926" 
            stroke="#000000" stroke-width="2" stroke-linecap="round" /><line x1="618.7046632124353" y1="266.47668393782385" x2="618.7046632124353" y2="257.92746113989637" 
            stroke="#000000" stroke-width="2" stroke-linecap="round" /><line x1="601.6062176165804" y1="35.64766839378239" x2="601.6062176165804" y2="18.549222797927463" 
           stroke="#000000" stroke-width="2" stroke-linecap="round" /><line x1="618.7046632124353" y1="35.64766839378239" x2="618.7046632124353" y2="257.92746113989637" 
              stroke="#000000" stroke-width="2" stroke-linecap="round" /><line x1="618.7046632124353" y1="257.92746113989637" x2="635.8031088082902" y2="257.92746113989637" 
            stroke="#000000" stroke-width="2" stroke-linecap="round" /><line x1="618.7046632124353" y1="257.92746113989637" x2="618.7046632124353" y2="27.098445595854926" 
            stroke="#000000" stroke-width="2" stroke-linecap="round" /><line x1="635.8031088082902" y1="257.92746113989637" x2="635.8031088082902" y2="249.3782383419689" 
            stroke="#000000" stroke-width="2" stroke-linecap="round" /><line x1="618.7046632124353" y1="35.64766839378239" x2="618.7046632124353" y2="18.549222797927463" 
           stroke="#000000" stroke-width="2" stroke-linecap="round" /><line x1="635.8031088082902" y1="35.64766839378239" x2="635.8031088082902" y2="249.3782383419689" 
              stroke="#000000" stroke-width="2" stroke-linecap="round" /><line x1="635.8031088082902" y1="249.3782383419689" x2="652.9015544041451" y2="249.3782383419689" 
            stroke="#000000" stroke-width="2" stroke-linecap="round" /><line x1="635.8031088082902" y1="249.3782383419689" x2="635.8031088082902" y2="27.098445595854926" 
            stroke="#000000" stroke-width="2" stroke-linecap="round" /><line x1="652.9015544041451" y1="249.3782383419689" x2="652.9015544041451" y2="240.82901554404145" 
            stroke="#000000" stroke-width="2" stroke-linecap="round" /><line x1="635.8031088082902" y1="35.64766839378239" x2="635.8031088082902" y2="18.549222797927463" 
           stroke="#000000" stroke-width="2" stroke-linecap="round" /><line x1="652.9015544041451" y1="35.64766839378239" x2="652.9015544041451" y2="240.82901554404143" 
              stroke="#000000" stroke-width="2" stroke-linecap="round" /><line x1="652.9015544041451" y1="240.82901554404143" x2="670" y2="240.82901554404143" 
            stroke="#000000" stroke-width="2" stroke-linecap="round" /><line x1="652.9015544041451" y1="240.82901554404143" x2="652.9015544041451" y2="27.098445595854926" 
            stroke="#000000" stroke-width="2" stroke-linecap="round" /><line x1="670" y1="240.82901554404143" x2="670" y2="232.27979274611397" 
            stroke="#000000" stroke-width="2" stroke-linecap="round" /><line x1="652.9015544041451" y1="35.64766839378239" x2="652.9015544041451" y2="18.549222797927463" 
           stroke="#000000" stroke-width="2" stroke-linecap="round" /><line x1="670" y1="35.64766839378239" x2="670" y2="232.27979274611397" 
              stroke="#000000" stroke-width="2" stroke-linecap="round" /><line x1="670" y1="232.27979274611397" x2="687.098445595855" y2="232.27979274611397" 
            stroke="#000000" stroke-width="2" stroke-linecap="round" /><line x1="670" y1="232.27979274611397" x2="670" y2="27.098445595854926" 
            stroke="#000000" stroke-width="2" stroke-linecap="round" /><line x1="687.098445595855" y1="232.27979274611397" x2="687.098445595855" y2="223.7305699481865" 
            stroke="#000000" stroke-width="2" stroke-linecap="round" /><line x1="670" y1="35.64766839378239" x2="670" y2="18.549222797927463" 
           stroke="#000000" stroke-width="2" stroke-linecap="round" /><line x1="687.098445595855" y1="35.64766839378239" x2="687.098445595855" y2="223.7305699481865" 
              stroke="#000000" stroke-width="2" stroke-linecap="round" /><line x1="687.098445595855" y1="223.7305699481865" x2="704.1968911917098" y2="223.7305699481865" 
            stroke="#000000" stroke-width="2" stroke-linecap="round" /><line x1="687.098445595855" y1="223.7305699481865" x2="687.098445595855" y2="27.098445595854926" 
            stroke="#000000" stroke-width="2" stroke-linecap="round" /><line x1="704.1968911917098" y1="223.7305699481865" x2="704.1968911917098" y2="215.18134715025906" 
            stroke="#000000" stroke-width="2" stroke-linecap="round" /><line x1="687.098445595855" y1="35.64766839378239" x2="687.098445595855" y2="18.549222797927463" 
           stroke="#000000" stroke-width="2" stroke-linecap="round" /><line x1="704.1968911917098" y1="35.64766839378239" x2="704.1968911917098" y2="215.18134715025906" 
              stroke="#000000" stroke-width="2" stroke-linecap="round" /><line x1="704.1968911917098" y1="215.18134715025906" x2="721.2953367875648" y2="215.18134715025906" 
            stroke="#000000" stroke-width="2" stroke-linecap="round" /><line x1="704.1968911917098" y1="215.18134715025906" x2="704.1968911917098" y2="27.098445595854926" 
            stroke="#000000" stroke-width="2" stroke-linecap="round" /><line x1="721.2953367875648" y1="215.18134715025906" x2="721.2953367875648" y2="206.6321243523316" 
            stroke="#000000" stroke-width="2" stroke-linecap="round" /><line x1="704.1968911917098" y1="35.64766839378239" x2="704.1968911917098" y2="18.549222797927463" 
           stroke="#000000" stroke-width="2" stroke-linecap="round" /><line x1="721.2953367875648" y1="35.64766839378239" x2="721.2953367875648" y2="206.6321243523316" 
              stroke="#000000" stroke-width="2" stroke-linecap="round" /><line x1="721.2953367875648" y1="206.6321243523316" x2="738.3937823834196" y2="206.6321243523316" 
            stroke="#000000" stroke-width="2" stroke-linecap="round" /><line x1="721.2953367875648" y1="206.6321243523316" x2="721.2953367875648" y2="27.098445595854926" 
            stroke="#000000" stroke-width="2" stroke-linecap="round" /><line x1="738.3937823834196" y1="206.6321243523316" x2="738.3937823834196" y2="198.08290155440415" 
            stroke="#000000" stroke-width="2" stroke-linecap="round" /><line x1="721.2953367875648" y1="35.64766839378239" x2="721.2953367875648" y2="18.549222797927463" 
           stroke="#000000" stroke-width="2" stroke-linecap="round" /><line x1="738.3937823834196" y1="35.64766839378239" x2="738.3937823834196" y2="198.08290155440415" 
              stroke="#000000" stroke-width="2" stroke-linecap="round" /><line x1="738.3937823834196" y1="198.08290155440415" x2="755.4922279792746" y2="198.08290155440415" 
            stroke="#000000" stroke-width="2" stroke-linecap="round" /><line x1="738.3937823834196" y1="198.08290155440415" x2="738.3937823834196" y2="27.098445595854926" 
            stroke="#000000" stroke-width="2" stroke-linecap="round" /><line x1="755.4922279792746" y1="198.08290155440415" x2="755.4922279792746" y2="189.5336787564767" 
            stroke="#000000" stroke-width="2" stroke-linecap="round" /><line x1="738.3937823834196" y1="35.64766839378239" x2="738.3937823834196" y2="18.549222797927463" 
           stroke="#000000" stroke-width="2" stroke-linecap="round" /><line x1="755.4922279792746" y1="35.64766839378239" x2="755.4922279792746" y2="189.53367875647666" 
              stroke="#000000" stroke-width="2" stroke-linecap="round" /><line x1="755.4922279792746" y1="189.53367875647666" x2="772.5906735751296" y2="189.53367875647666" 
            stroke="#000000" stroke-width="2" stroke-linecap="round" /><line x1="755.4922279792746" y1="189.53367875647666" x2="755.4922279792746" y2="27.098445595854926" 
            stroke="#000000" stroke-width="2" stroke-linecap="round" /><line x1="772.5906735751296" y1="189.53367875647666" x2="772.5906735751296" y2="180.9844559585492" 
            stroke="#000000" stroke-width="2" stroke-linecap="round" /><line x1="755.4922279792746" y1="35.64766839378239" x2="755.4922279792746" y2="18.549222797927463" 
           stroke="#000000" stroke-width="2" stroke-linecap="round" /><line x1="772.5906735751296" y1="35.64766839378239" x2="772.5906735751296" y2="180.9844559585492" 
              stroke="#000000" stroke-width="2" stroke-linecap="round" /><line x1="772.5906735751296" y1="180.9844559585492" x2="789.6891191709844" y2="180.9844559585492" 
            stroke="#000000" stroke-width="2" stroke-linecap="round" /><line x1="772.5906735751296" y1="180.9844559585492" x2="772.5906735751296" y2="27.098445595854926" 
            stroke="#000000" stroke-width="2" stroke-linecap="round" /><line x1="789.6891191709844" y1="180.9844559585492" x2="789.6891191709844" y2="172.43523316062175" 
            stroke="#000000" stroke-width="2" stroke-linecap="round" /><line x1="772.5906735751296" y1="35.64766839378239" x2="772.5906735751296" y2="18.549222797927463" 
           stroke="#000000" stroke-width="2" stroke-linecap="round" /><line x1="789.6891191709844" y1="35.64766839378239" x2="789.6891191709844" y2="172.43523316062175" 
              stroke="#000000" stroke-width="2" stroke-linecap="round" /><line x1="789.6891191709844" y1="172.43523316062175" x2="806.7875647668393" y2="172.43523316062175" 
            stroke="#000000" stroke-width="2" stroke-linecap="round" /><line x1="789.6891191709844" y1="172.43523316062175" x2="789.6891191709844" y2="27.098445595854926" 
            stroke="#000000" stroke-width="2" stroke-linecap="round" /><line x1="806.7875647668393" y1="172.43523316062175" x2="806.7875647668393" y2="163.8860103626943" 
            stroke="#000000" stroke-width="2" stroke-linecap="round" /><line x1="789.6891191709844" y1="35.64766839378239" x2="789.6891191709844" y2="18.549222797927463" 
           stroke="#000000" stroke-width="2" stroke-linecap="round" /><line x1="806.7875647668393" y1="35.64766839378239" x2="806.7875647668393" y2="163.8860103626943" 
              stroke="#000000" stroke-width="2" stroke-linecap="round" /><line x1="806.7875647668393" y1="163.8860103626943" x2="823.8860103626943" y2="163.8860103626943" 
            stroke="#000000" stroke-width="2" stroke-linecap="round" /><line x1="806.7875647668393" y1="163.8860103626943" x2="806.7875647668393" y2="27.098445595854926" 
            stroke="#000000" stroke-width="2" stroke-linecap="round" /><line x1="823.8860103626943" y1="163.8860103626943" x2="823.8860103626943" y2="155.33678756476684" 
            stroke="#000000" stroke-width="2" stroke-linecap="round" /><line x1="806.7875647668393" y1="35.64766839378239" x2="806.7875647668393" y2="18.549222797927463" 
           stroke="#000000" stroke-width="2" stroke-linecap="round" /><line x1="823.8860103626943" y1="35.64766839378239" x2="823.8860103626943" y2="155.3367875647668" 
              stroke="#000000" stroke-width="2" stroke-linecap="round" /><line x1="823.8860103626943" y1="155.3367875647668" x2="840.9844559585492" y2="155.3367875647668" 
            stroke="#000000" stroke-width="2" stroke-linecap="round" /><line x1="823.8860103626943" y1="155.3367875647668" x2="823.8860103626943" y2="27.098445595854926" 
            stroke="#000000" stroke-width="2" stroke-linecap="round" /><line x1="840.9844559585492" y1="155.3367875647668" x2="840.9844559585492" y2="146.78756476683935" 
            stroke="#000000" stroke-width="2" stroke-linecap="round" /><line x1="823.8860103626943" y1="35.64766839378239" x2="823.8860103626943" y2="18.549222797927463" 
           stroke="#000000" stroke-width="2" stroke-linecap="round" /><line x1="840.9844559585492" y1="35.64766839378239" x2="840.9844559585492" y2="146.78756476683938" 
              stroke="#000000" stroke-width="2" stroke-linecap="round" /><line x1="840.9844559585492" y1="146.78756476683938" x2="858.0829015544041" y2="146.78756476683938" 
            stroke="#000000" stroke-width="2" stroke-linecap="round" /><line x1="840.9844559585492" y1="146.78756476683938" x2="840.9844559585492" y2="27.098445595854926" 
            stroke="#000000" stroke-width="2" stroke-linecap="round" /><line x1="858.0829015544041" y1="146.78756476683938" x2="858.0829015544041" y2="138.23834196891193" 
            stroke="#000000" stroke-width="2" stroke-linecap="round" /><line x1="840.9844559585492" y1="35.64766839378239" x2="840.9844559585492" y2="18.549222797927463" 
           stroke="#000000" stroke-width="2" stroke-linecap="round" /><line x1="858.0829015544041" y1="35.64766839378239" x2="858.0829015544041" y2="138.2383419689119" 
              stroke="#000000" stroke-width="2" stroke-linecap="round" /><line x1="858.0829015544041" y1="138.2383419689119" x2="875.181347150259" y2="138.2383419689119" 
            stroke="#000000" stroke-width="2" stroke-linecap="round" /><line x1="858.0829015544041" y1="138.2383419689119" x2="858.0829015544041" y2="27.098445595854926" 
            stroke="#000000" stroke-width="2" stroke-linecap="round" /><line x1="875.181347150259" y1="138.2383419689119" x2="875.181347150259" y2="129.68911917098444" 
            stroke="#000000" stroke-width="2" stroke-linecap="round" /><line x1="858.0829015544041" y1="35.64766839378239" x2="858.0829015544041" y2="18.549222797927463" 
           stroke="#000000" stroke-width="2" stroke-linecap="round" /><line x1="875.181347150259" y1="35.64766839378239" x2="875.181347150259" y2="129.68911917098444" 
              stroke="#000000" stroke-width="2" stroke-linecap="round" /><line x1="875.181347150259" y1="129.68911917098444" x2="892.2797927461139" y2="129.68911917098444" 
            stroke="#000000" stroke-width="2" stroke-linecap="round" /><line x1="875.181347150259" y1="129.68911917098444" x2="875.181347150259" y2="27.098445595854926" 
            stroke="#000000" stroke-width="2" stroke-linecap="round" /><line x1="892.2797927461139" y1="129.68911917098444" x2="892.2797927461139" y2="121.13989637305698" 
            stroke="#000000" stroke-width="2" stroke-linecap="round" /><line x1="875.181347150259" y1="35.64766839378239" x2="875.181347150259" y2="18.549222797927463" 
           stroke="#000000" stroke-width="2" stroke-linecap="round" /><line x1="892.2797927461139" y1="35.64766839378239" x2="892.2797927461139" y2="121.13989637305698" 
              stroke="#000000" stroke-width="2" stroke-linecap="round" /><line x1="892.2797927461139" y1="121.13989637305698" x2="909.3782383419689" y2="121.13989637305698" 
            stroke="#000000" stroke-width="2" stroke-linecap="round" /><line x1="892.2797927461139" y1="121.13989637305698" x2="892.2797927461139" y2="27.098445595854926" 
            stroke="#000000" stroke-width="2" stroke-linecap="round" /><line x1="909.3782383419689" y1="121.13989637305698" x2="909.3782383419689" y2="112.59067357512953" 
            stroke="#000000" stroke-width="2" stroke-linecap="round" /><line x1="892.2797927461139" y1="35.64766839378239" x2="892.2797927461139" y2="18.549222797927463" 
           stroke="#000000" stroke-width="2" stroke-linecap="round" /><line x1="909.3782383419689" y1="35.64766839378239" x2="909.3782383419689" y2="112.59067357512951" 
              stroke="#000000" stroke-width="2" stroke-linecap="round" /><line x1="909.3782383419689" y1="112.59067357512951" x2="926.4766839378237" y2="112.59067357512951" 
            stroke="#000000" stroke-width="2" stroke-linecap="round" /><line x1="909.3782383419689" y1="112.59067357512951" x2="909.3782383419689" y2="27.098445595854926" 
            stroke="#000000" stroke-width="2" stroke-linecap="round" /><line x1="926.4766839378237" y1="112.59067357512951" x2="926.4766839378237" y2="104.04145077720206" 
            stroke="#000000" stroke-width="2" stroke-linecap="round" /><line x1="909.3782383419689" y1="35.64766839378239" x2="909.3782383419689" y2="18.549222797927463" 
           stroke="#000000" stroke-width="2" stroke-linecap="round" /><line x1="926.4766839378237" y1="35.64766839378239" x2="926.4766839378237" y2="104.04145077720206" 
              stroke="#000000" stroke-width="2" stroke-linecap="round" /><line x1="926.4766839378237" y1="104.04145077720206" x2="943.5751295336786" y2="104.04145077720206" 
            stroke="#000000" stroke-width="2" stroke-linecap="round" /><line x1="926.4766839378237" y1="104.04145077720206" x2="926.4766839378237" y2="27.098445595854926" 
            stroke="#000000" stroke-width="2" stroke-linecap="round" /><line x1="943.5751295336786" y1="104.04145077720206" x2="943.5751295336786" y2="95.4922279792746" 
            stroke="#000000" stroke-width="2" stroke-linecap="round" /><line x1="926.4766839378237" y1="35.64766839378239" x2="926.4766839378237" y2="18.549222797927463" 
           stroke="#000000" stroke-width="2" stroke-linecap="round" /><line x1="943.5751295336786" y1="35.64766839378239" x2="943.5751295336786" y2="95.49222797927459" 
              stroke="#000000" stroke-width="2" stroke-linecap="round" /><line x1="943.5751295336786" y1="95.49222797927459" x2="960.6735751295336" y2="95.49222797927459" 
            stroke="#000000" stroke-width="2" stroke-linecap="round" /><line x1="943.5751295336786" y1="95.49222797927459" x2="943.5751295336786" y2="27.098445595854926" 
            stroke="#000000" stroke-width="2" stroke-linecap="round" /><line x1="960.6735751295336" y1="95.49222797927459" x2="960.6735751295336" y2="86.94300518134713" 
            stroke="#000000" stroke-width="2" stroke-linecap="round" /><line x1="943.5751295336786" y1="35.64766839378239" x2="943.5751295336786" y2="18.549222797927463" 
           stroke="#000000" stroke-width="2" stroke-linecap="round" /><line x1="960.6735751295336" y1="35.64766839378239" x2="960.6735751295336" y2="86.94300518134713" 
              stroke="#000000" stroke-width="2" stroke-linecap="round" /><line x1="960.6735751295336" y1="86.94300518134713" x2="977.7720207253885" y2="86.94300518134713" 
            stroke="#000000" stroke-width="2" stroke-linecap="round" /><line x1="960.6735751295336" y1="86.94300518134713" x2="960.6735751295336" y2="27.098445595854926" 
            stroke="#000000" stroke-width="2" stroke-linecap="round" /><line x1="977.7720207253885" y1="86.94300518134713" x2="977.7720207253885" y2="78.39378238341968" 
            stroke="#000000" stroke-width="2" stroke-linecap="round" /><line x1="960.6735751295336" y1="35.64766839378239" x2="960.6735751295336" y2="18.549222797927463" 
           stroke="#000000" stroke-width="2" stroke-linecap="round" /><line x1="977.7720207253885" y1="35.64766839378239" x2="977.7720207253885" y2="78.39378238341969" 
              stroke="#000000" stroke-width="2" stroke-linecap="round" /><line x1="977.7720207253885" y1="78.39378238341969" x2="994.8704663212434" y2="78.39378238341969" 
            stroke="#000000" stroke-width="2" stroke-linecap="round" /><line x1="977.7720207253885" y1="78.39378238341969" x2="977.7720207253885" y2="27.098445595854926" 
            stroke="#000000" stroke-width="2" stroke-linecap="round" /><line x1="994.8704663212434" y1="78.39378238341969" x2="994.8704663212434" y2="69.84455958549223" 
            stroke="#000000" stroke-width="2" stroke-linecap="round" /><line x1="977.7720207253885" y1="35.64766839378239" x2="977.7720207253885" y2="18.549222797927463" 
           stroke="#000000" stroke-width="2" stroke-linecap="round" /><line x1="994.8704663212434" y1="35.64766839378239" x2="994.8704663212434" y2="69.84455958549223" 
              stroke="#000000" stroke-width="2" stroke-linecap="round" /><line x1="994.8704663212434" y1="69.84455958549223" x2="1011.9689119170982" y2="69.84455958549223" 
            stroke="#000000" stroke-width="2" stroke-linecap="round" /><line x1="994.8704663212434" y1="69.84455958549223" x2="994.8704663212434" y2="27.098445595854926" 
            stroke="#000000" stroke-width="2" stroke-linecap="round" /><line x1="1011.9689119170982" y1="69.84455958549223" x2="1011.9689119170982" y2="61.29533678756477" 
            stroke="#000000" stroke-width="2" stroke-linecap="round" /><line x1="994.8704663212434" y1="35.64766839378239" x2="994.8704663212434" y2="18.549222797927463" 
           stroke="#000000" stroke-width="2" stroke-linecap="round" /><line x1="1011.9689119170982" y1="35.64766839378239" x2="1011.9689119170982" y2="61.29533678756477" 
              stroke="#000000" stroke-width="2" stroke-linecap="round" /><line x1="1011.9689119170982" y1="61.29533678756477" x2="1029.067357512953" y2="61.29533678756477" 
            stroke="#000000" stroke-width="2" stroke-linecap="round" /><line x1="1011.9689119170982" y1="61.29533678756477" x2="1011.9689119170982" y2="27.098445595854926" 
            stroke="#000000" stroke-width="2" stroke-linecap="round" /><line x1="1029.067357512953" y1="61.29533678756477" x2="1029.067357512953" y2="52.74611398963731" 
            stroke="#000000" stroke-width="2" stroke-linecap="round" /><line x1="1011.9689119170982" y1="35.64766839378239" x2="1011.9689119170982" y2="18.549222797927463" 
           stroke="#000000" stroke-width="2" stroke-linecap="round" /><line x1="1029.067357512953" y1="35.64766839378239" x2="1029.067357512953" y2="52.74611398963731" 
              stroke="#000000" stroke-width="2" stroke-linecap="round" /><line x1="1029.067357512953" y1="52.74611398963731" x2="1046.1658031088082" y2="52.74611398963731" 
            stroke="#000000" stroke-width="2" stroke-linecap="round" /><line x1="1029.067357512953" y1="52.74611398963731" x2="1029.067357512953" y2="27.098445595854926" 
            stroke="#000000" stroke-width="2" stroke-linecap="round" /><line x1="1046.1658031088082" y1="52.74611398963731" x2="1046.1658031088082" y2="44.19689119170985" 
            stroke="#000000" stroke-width="2" stroke-linecap="round" /><line x1="1029.067357512953" y1="35.64766839378239" x2="1029.067357512953" y2="18.549222797927463" 
           stroke="#000000" stroke-width="2" stroke-linecap="round" /><line x1="1046.1658031088082" y1="35.64766839378239" x2="1046.1658031088082" y2="44.19689119170985" 
              stroke="#000000" stroke-width="2" stroke-linecap="round" /><line x1="1046.1658031088082" y1="44.19689119170985" x2="1063.2642487046633" y2="44.19689119170985" 
            stroke="#000000" stroke-width="2" stroke-linecap="round" /><line x1="1046.1658031088082" y1="44.19689119170985" x2="1046.1658031088082" y2="27.098445595854926" 
            stroke="#000000" stroke-width="2" stroke-linecap="round" /><line x1="1063.2642487046633" y1="44.19689119170985" x2="1063.2642487046633" y2="35.64766839378239" 
            stroke="#000000" stroke-width="2" stroke-linecap="round" /><line x1="1046.1658031088082" y1="35.64766839378239" x2="1046.1658031088082" y2="18.549222797927463" 
           stroke="#000000" stroke-width="2" stroke-linecap="round" /><line x1="1063.2642487046633" y1="35.64766839378239" x2="1080.3626943005181" y2="35.64766839378239" 
            stroke="#000000" stroke-width="2" stroke-linecap="round" /><line x1="1063.2642487046633" y1="35.64766839378239" x2="1063.2642487046633" y2="27.098445595854926" 
            stroke="#000000" stroke-width="2" stroke-linecap="round" /><line x1="1080.3626943005181" y1="35.64766839378239" x2="1080.3626943005181" y2="27.098445595854926" 
            stroke="#000000" stroke-width="2" stroke-linecap="round" /><line x1="1063.2642487046633" y1="35.64766839378239" x2="1063.2642487046633" y2="18.549222797927463" 
           stroke="#000000" stroke-width="2" stroke-linecap="round" /><line x1="1080.3626943005181" y1="35.64766839378239" x2="1080.3626943005181" y2="27.098445595854926" 
           stroke="#000000" stroke-width="2" stroke-linecap="round" /></g></svg>