<svg xmlns="http://www.w3.org/2000/svg" width="1200" height="800" 
             viewBox="0 0 1200 800" preserveAspectRatio="xMidYMid meet"><rect width="1200" height="800" fill="#282a36" /><g transform="translate(20, 20)"><line x1="52.50602409638554" y1="10" x2="474.0240963855422" y2="10" 
               stroke="#000000" stroke-width="2.4" stroke-linecap="round" /><line x1="52.50602409638554" y1="45.42168674698795" x2="474.0240963855422" y2="45.42168674698795" 
               stroke="#000000" stroke-width="2.4" stroke-linecap="round" /><line x1="477.566265060241" y1="80.8433734939759" x2="477.566265060241" y2="364.21686746987956" 
              stroke="#000000" stroke-width="2" stroke-linecap="round" /><line x1="52.50602409638554" y1="364.21686746987956" x2="477.566265060241" y2="364.21686746987956" 
            stroke="#000000" stroke-width="2" stroke-linecap="round" /><line x1="52.50602409638554" y1="364.21686746987956" x2="52.50602409638554" y2="328.7951807228916" 
            stroke="#000000" stroke-width="2" stroke-linecap="round" /><line x1="477.566265060241" y1="364.21686746987956" x2="477.566265060241" y2="70.8433734939759" 
            stroke="#000000" stroke-width="2" stroke-linecap="round" /><line x1="406.72289156626505" y1="80.8433734939759" x2="406.72289156626505" y2="328.7951807228916" 
              stroke="#000000" stroke-width="2" stroke-linecap="round" /><line x1="52.50602409638554" y1="328.7951807228916" x2="406.72289156626505" y2="328.7951807228916" 
            stroke="#000000" stroke-width="2" stroke-linecap="round" /><line x1="52.50602409638554" y1="328.7951807228916" x2="52.50602409638554" y2="293.3734939759036" 
            stroke="#000000" stroke-width="2" stroke-linecap="round" /><line x1="406.72289156626505" y1="328.7951807228916" x2="406.72289156626505" y2="70.8433734939759" 
            stroke="#000000" stroke-width="2" stroke-linecap="round" /><line x1="52.50602409638554" y1="80.8433734939759" x2="353.5903614457831" y2="80.8433734939759" 
               stroke="#000000" stroke-width="2.4" stroke-linecap="round" /><line x1="52.50602409638554" y1="116.26506024096386" x2="353.5903614457831" y2="116.26506024096386" 
               stroke="#000000" stroke-width="2.4" stroke-linecap="round" /><line x1="52.50602409638554" y1="151.6867469879518" x2="353.5903614457831" y2="151.6867469879518" 
               stroke="#000000" stroke-width="2.4" stroke-linecap="round" /><line x1="52.50602409638554" y1="187.10843373493975" x2="353.5903614457831" y2="187.10843373493975" 
               stroke="#000000" stroke-width="2.4" stroke-linecap="round" /><line x1="52.50602409638554" y1="257.95180722891564" x2="52.50602409638554" y2="293.3734939759036" 
              stroke="#000000" stroke-width="2" stroke-linecap="round" /><line x1="52.50602409638554" y1="293.3734939759036" x2="194.19277108433735" y2="293.3734939759036" 
            stroke="#000000" stroke-width="2" stroke-linecap="round" /><line x1="52.50602409638554" y1="293.3734939759036" x2="52.50602409638554" y2="222.5301204819277" 
            stroke="#000000" stroke-width="2" stroke-linecap="round" /><line x1="194.19277108433735" y1="293.3734939759036" x2="194.19277108433735" y2="257.95180722891564" 
            stroke="#000000" stroke-width="2" stroke-linecap="round" /><line x1="52.50602409638554" y1="222.5301204819277" x2="123.34939759036143" y2="222.5301204819277" 
            stroke="#000000" stroke-width="2" stroke-linecap="round" /><line x1="52.50602409638554" y1="222.5301204819277" x2="52.50602409638554" y2="212.5301204819277" 
            stroke="#000000" stroke-width="2" stroke-linecap="round" /><line x1="123.34939759036143" y1="222.5301204819277" x2="123.34939759036143" y2="212.5301204819277" 
            stroke="#000000" stroke-width="2" stroke-linecap="round" /><line x1="52.50602409638554" y1="222.5301204819277" x2="52.50602409638554" y2="80.84337349397589" 
           stroke="#000000" stroke-width="2" stroke-linecap="round" /><line x1="123.34939759036143" y1="222.5301204819277" x2="123.34939759036143" y2="151.6867469879518" 
           stroke="#000000" stroke-width="2" stroke-linecap="round" /><line x1="335.87951807228916" y1="222.5301204819277" x2="335.87951807228916" y2="257.95180722891564" 
              stroke="#000000" stroke-width="2" stroke-linecap="round" /><line x1="194.19277108433735" y1="257.95180722891564" x2="335.87951807228916" y2="257.95180722891564" 
            stroke="#000000" stroke-width="2" stroke-linecap="round" /><line x1="194.19277108433735" y1="257.95180722891564" x2="194.19277108433735" y2="222.5301204819277" 
            stroke="#000000" stroke-width="2" stroke-linecap="round" /><line x1="335.87951807228916" y1="257.95180722891564" x2="335.87951807228916" y2="212.5301204819277" 
            stroke="#000000" stroke-width="2" stroke-linecap="round" /><line x1="194.19277108433735" y1="222.5301204819277" x2="265.03614457831327" y2="222.5301204819277" 
            stroke="#000000" stroke-width="2" stroke-linecap="round" /><line x1="194.19277108433735" y1="222.5301204819277" x2="194.19277108433735" y2="212.5301204819277" 
            stroke="#000000" stroke-width="2" stroke-linecap="round" /><line x1="265.03614457831327" y1="222.5301204819277" x2="265.03614457831327" y2="212.5301204819277" 
            stroke="#000000" stroke-width="2" stroke-linecap="round" /><line x1="194.19277108433735" y1="222.5301204819277" x2="194.19277108433735" y2="116.26506024096383" 
           stroke="#000000" stroke-width="2" stroke-linecap="round" /><line x1="265.03614457831327" y1="222.5301204819277" x2="265.03614457831327" y2="151.6867469879518" 
           stroke="#000000" stroke-width="2" stroke-linecap="round" /><line x1="335.87951807228916" y1="222.5301204819277" x2="335.87951807228916" y2="187.10843373493975" 
           stroke="#000000" stroke-width="2" stroke-linecap="round" /><line x1="406.72289156626505" y1="80.8433734939759" x2="406.72289156626505" y2="10" 
           stroke="#000000" stroke-width="2" stroke-linecap="round" /><line x1="477.566265060241" y1="80.8433734939759" x2="477.566265060241" y2="45.42168674698795" 
           stroke="#000000" stroke-width="2" stroke-linecap="round" /></g></svg>